<?xml version="1.0" standalone="no"?>
<!DOCTYPE svg PUBLIC "-//W3C//DTD SVG 20010904//EN"
 "http://www.w3.org/TR/2001/REC-SVG-20010904/DTD/svg10.dtd">
<svg version="1.0" xmlns="http://www.w3.org/2000/svg"
 width="3290.000000pt" height="3303.000000pt" viewBox="0 0 3290.000000 3303.000000"
 preserveAspectRatio="xMidYMid meet">
<metadata>
Created by potrace 1.16, written by Peter Selinger 2001-2019
</metadata>
<g transform="translate(0.000000,3303.000000) scale(0.100000,-0.100000)"
fill="#000000" stroke="none">
<path d="M8288 32009 c-13 -7 -18 -23 -18 -54 l0 -45 -133 0 c-157 0 -177 -8
-177 -70 l0 -39 -92 -3 -93 -3 -3 -47 -3 -48 -64 0 c-35 0 -75 -4 -89 -10 -23
-8 -26 -15 -26 -54 l0 -45 -67 -3 -68 -3 -3 -52 -3 -52 -62 -3 -62 -3 -3 -47
-3 -48 -43 0 c-49 0 -56 -9 -56 -71 l0 -39 -54 0 c-62 0 -73 -9 -78 -65 -3
-39 -4 -40 -45 -43 l-43 -3 0 -49 0 -49 -42 -3 -43 -3 -9 -52 c-10 -53 -10
-53 -47 -53 -39 0 -49 -14 -49 -72 0 -23 -5 -28 -37 -34 -45 -8 -53 -17 -53
-65 0 -34 -3 -37 -35 -43 -38 -7 -55 -33 -55 -82 0 -17 -6 -24 -19 -24 -15 0
-23 -12 -33 -47 -11 -37 -19 -48 -43 -56 -38 -13 -45 -23 -45 -68 0 -34 -3
-37 -36 -43 -37 -8 -39 -10 -49 -68 -4 -29 -11 -38 -25 -38 -17 0 -20 -7 -20
-49 l0 -48 -42 -9 c-43 -9 -43 -9 -46 -56 -3 -39 -6 -47 -25 -50 -19 -3 -22
-10 -25 -55 -3 -45 -6 -53 -23 -53 -39 0 -58 -19 -65 -65 -5 -35 -11 -45 -25
-45 -14 0 -20 -10 -25 -50 -5 -40 -10 -50 -25 -50 -16 0 -19 -8 -19 -55 0 -49
-2 -55 -21 -55 -25 0 -59 -35 -59 -61 0 -30 -11 -49 -30 -49 -19 0 -30 -26
-30 -71 0 -18 -6 -28 -20 -32 -17 -4 -20 -14 -20 -56 0 -48 -2 -51 -25 -51
-23 0 -25 -3 -25 -50 0 -42 -3 -50 -19 -50 -19 0 -31 -34 -31 -86 0 -17 -6
-24 -20 -24 -14 0 -20 -7 -20 -22 0 -29 -22 -88 -33 -88 -17 0 -46 -45 -47
-71 0 -17 -9 -33 -25 -43 -19 -13 -25 -25 -25 -53 0 -25 -7 -42 -25 -59 -17
-16 -25 -34 -25 -57 0 -26 -5 -36 -19 -40 -14 -3 -21 -17 -27 -53 -4 -30 -14
-54 -25 -62 -14 -9 -19 -26 -19 -56 0 -34 -4 -45 -19 -49 -13 -3 -21 -18 -26
-48 -4 -24 -16 -52 -26 -62 -11 -10 -19 -31 -19 -50 0 -18 -11 -59 -25 -92
-15 -37 -25 -80 -25 -112 0 -50 -2 -53 -25 -53 -23 0 -25 -3 -25 -50 0 -43 -3
-50 -20 -50 -18 0 -20 -7 -20 -54 0 -49 -2 -55 -22 -58 -20 -3 -23 -10 -26
-55 -3 -45 -6 -53 -23 -53 -16 0 -19 -7 -19 -51 0 -42 -3 -52 -19 -56 -22 -6
-31 -31 -31 -86 0 -21 -7 -49 -16 -63 -10 -14 -19 -54 -22 -94 -4 -61 -7 -69
-26 -72 -18 -3 -21 -11 -24 -55 -3 -44 -6 -53 -21 -53 -15 0 -19 -10 -23 -55
-3 -32 -12 -62 -22 -74 -12 -13 -19 -44 -23 -105 -5 -73 -9 -86 -23 -86 -22 0
-30 -20 -30 -71 0 -27 -4 -39 -14 -39 -21 0 -26 -23 -26 -120 0 -84 -1 -89
-22 -92 -20 -3 -23 -10 -26 -54 -2 -42 -7 -53 -22 -57 -18 -5 -20 -14 -20
-105 0 -97 -1 -101 -22 -104 -20 -3 -23 -10 -26 -53 -2 -33 -10 -56 -23 -68
-16 -15 -19 -32 -19 -107 0 -84 -1 -89 -22 -92 -22 -3 -23 -8 -26 -105 -2 -92
-5 -103 -21 -103 -20 0 -31 -35 -31 -95 0 -17 -8 -47 -17 -66 -10 -19 -19 -65
-21 -106 -2 -40 -8 -73 -13 -73 -13 0 -39 -98 -39 -147 0 -30 -6 -49 -20 -63
-17 -17 -20 -33 -20 -111 0 -79 -3 -93 -20 -107 -17 -14 -21 -34 -26 -112 -5
-65 -12 -101 -23 -113 -12 -14 -16 -48 -19 -152 -4 -128 -5 -134 -26 -137 -20
-3 -21 -10 -24 -105 -2 -91 -5 -103 -22 -108 -18 -6 -20 -16 -20 -129 0 -120
-11 -173 -41 -191 -5 -4 -9 -53 -9 -109 0 -92 -2 -104 -18 -108 -16 -4 -20
-19 -25 -83 -4 -43 -7 -113 -7 -155 0 -69 -2 -78 -20 -83 -19 -5 -20 -14 -20
-160 0 -142 -2 -155 -18 -159 -24 -7 -32 -67 -32 -240 0 -119 -10 -178 -32
-178 -4 0 -8 -76 -8 -169 0 -136 -3 -170 -14 -174 -25 -10 -36 -104 -36 -311
0 -195 -1 -204 -20 -209 -19 -5 -20 -14 -20 -316 0 -185 -4 -311 -9 -311 -5 0
-17 -7 -25 -16 -14 -14 -16 -72 -16 -490 0 -435 -1 -477 -17 -501 -17 -25 -18
-84 -18 -869 0 -788 1 -843 17 -861 17 -18 18 -56 18 -493 0 -476 4 -531 37
-571 10 -12 13 -75 13 -283 0 -259 1 -268 20 -273 19 -5 20 -14 20 -183 0
-202 5 -241 32 -247 16 -5 18 -18 18 -160 0 -146 1 -155 20 -160 18 -5 20 -14
20 -107 0 -148 9 -208 32 -214 16 -4 18 -16 18 -107 0 -94 2 -103 20 -108 18
-5 20 -14 20 -80 0 -102 8 -137 31 -137 16 0 19 -11 21 -102 3 -98 4 -103 26
-106 21 -3 22 -7 22 -108 0 -97 1 -104 20 -104 17 0 20 -7 20 -47 0 -51 19
-116 38 -135 7 -7 12 -40 12 -75 0 -56 2 -63 20 -63 18 0 20 -7 20 -55 0 -52
1 -55 25 -55 l25 0 0 -101 c0 -92 2 -101 20 -106 15 -4 20 -14 20 -37 0 -50
11 -76 31 -76 16 0 19 -8 19 -51 0 -42 3 -52 20 -56 15 -4 20 -14 20 -38 0
-46 9 -65 31 -65 16 0 19 -8 19 -55 0 -52 1 -55 25 -55 24 0 25 -3 25 -55 0
-48 2 -55 20 -55 17 0 20 -7 20 -50 0 -47 2 -50 25 -50 24 0 25 -3 25 -55 0
-48 3 -55 19 -55 17 0 20 -8 23 -52 3 -46 6 -53 26 -56 19 -3 22 -9 22 -53 0
-42 3 -49 20 -49 16 0 20 -7 20 -32 0 -52 11 -78 31 -78 14 0 19 -9 21 -47 3
-43 6 -48 33 -56 32 -9 55 -44 55 -84 0 -18 6 -23 25 -23 24 0 25 -3 25 -55 0
-47 3 -55 19 -55 19 0 31 -25 31 -66 0 -20 35 -44 65 -44 10 0 15 -15 17 -47
3 -43 6 -48 29 -51 20 -2 28 -10 33 -33 8 -41 35 -79 57 -79 14 0 18 -9 21
-47 3 -48 3 -48 46 -57 39 -8 42 -11 42 -42 0 -54 8 -64 51 -64 l39 0 0 -43
c0 -51 13 -67 56 -67 35 0 44 -13 44 -60 0 -36 7 -40 75 -47 l55 -6 0 -48 0
-49 44 0 45 0 7 -46 c7 -52 26 -64 100 -64 32 0 44 -4 44 -15 0 -8 8 -30 18
-49 18 -36 42 -46 112 -46 36 0 38 -2 44 -40 4 -24 14 -43 25 -50 11 -5 60
-10 110 -10 l91 0 0 -33 c0 -18 6 -42 14 -53 13 -17 30 -19 204 -22 l190 -3 6
-39 c4 -24 14 -43 26 -50 12 -7 99 -9 237 -8 l218 3 8 48 9 47 197 0 c224 0
237 4 247 71 l7 39 107 0 c119 0 120 1 120 66 l0 34 53 0 c28 0 69 3 90 6 37
7 37 7 37 55 l0 49 64 0 c36 0 76 4 90 10 23 8 26 15 26 55 l0 45 58 0 c68 0
82 11 82 61 l0 36 55 6 c30 3 59 8 64 11 5 4 13 27 17 51 6 44 7 45 45 45 23
0 41 5 43 13 29 101 25 97 78 97 52 0 52 1 63 63 5 31 10 37 31 37 47 0 64 17
64 65 l0 44 43 3 42 3 3 53 3 52 45 0 44 0 0 49 0 50 43 3 42 3 3 52 3 52 42
3 42 3 3 52 3 52 42 3 42 3 3 48 c3 41 6 47 25 47 41 0 67 27 67 71 0 35 3 39
25 39 24 0 25 3 25 54 l0 55 43 3 42 3 3 48 c3 39 6 47 22 47 20 0 60 64 60
95 0 9 9 15 24 15 28 0 36 16 36 71 0 32 3 39 20 39 17 0 20 7 20 50 0 45 2
50 23 50 57 0 67 9 67 61 0 46 2 49 25 49 24 0 25 3 25 55 0 50 2 55 23 55 17
0 27 10 40 40 9 22 17 44 17 49 0 5 11 12 24 15 24 6 36 30 36 79 0 20 5 27
20 27 17 0 20 7 20 50 0 45 3 50 25 56 22 6 25 11 25 55 0 42 3 49 20 49 11 0
20 6 20 14 0 7 6 19 14 25 8 7 17 25 21 40 3 16 16 33 30 39 21 10 25 19 25
56 0 39 3 45 23 48 19 3 22 10 25 51 2 33 7 47 18 47 17 0 34 40 34 81 0 22 5
29 20 29 17 0 20 7 20 48 0 42 3 50 25 60 21 10 25 18 25 56 0 35 4 45 20 49
17 4 20 14 20 55 0 45 3 51 23 54 19 3 22 10 25 50 2 36 8 48 23 53 15 5 19
16 19 55 0 43 3 49 23 52 19 3 22 10 25 56 3 44 6 52 23 52 16 0 19 7 19 50 0
39 4 52 18 57 25 10 32 23 32 68 0 28 6 44 19 52 13 8 20 29 25 77 7 68 23
116 38 116 4 0 8 24 8 54 0 49 2 55 23 58 19 3 22 10 25 56 3 44 6 52 23 52
16 0 19 7 19 54 0 44 3 55 18 58 21 6 32 60 32 154 0 47 2 54 20 54 17 0 20 7
20 49 0 44 3 49 25 55 24 6 25 10 25 81 0 69 13 122 33 136 5 4 12 27 14 53 4
32 12 50 24 57 17 8 19 22 19 109 0 95 1 99 23 102 19 3 22 10 25 51 2 31 10
55 23 68 16 16 19 33 19 109 0 74 3 90 15 90 23 0 35 43 35 128 0 66 3 79 20
90 18 11 20 23 20 116 0 80 3 105 14 109 21 8 36 95 36 202 0 85 2 94 20 100
19 6 20 15 20 176 0 94 4 169 9 169 5 0 16 21 25 47 14 41 16 125 16 659 0
337 -3 619 -6 628 -3 9 -15 16 -25 16 -18 0 -19 10 -19 156 0 146 -1 156 -20
161 -15 4 -20 15 -22 57 l-3 51 -100 3 c-114 3 -125 -3 -125 -70 0 -31 -4 -38
-20 -38 -17 0 -20 -7 -20 -48 0 -42 -3 -50 -25 -60 -21 -10 -25 -18 -25 -54 0
-32 -5 -46 -20 -56 -15 -9 -20 -23 -20 -55 0 -90 -12 -145 -31 -150 -15 -4
-19 -15 -19 -56 0 -39 -4 -53 -19 -60 -16 -9 -20 -27 -26 -106 -6 -80 -10 -95
-26 -100 -17 -6 -19 -17 -19 -110 0 -100 -1 -104 -22 -107 -22 -3 -23 -8 -26
-105 -2 -95 -4 -103 -22 -103 -19 0 -20 -7 -20 -104 0 -101 -1 -105 -22 -108
-22 -3 -23 -8 -26 -105 -2 -91 -5 -103 -22 -108 -16 -5 -20 -15 -20 -57 0 -38
-5 -54 -20 -66 -16 -14 -21 -34 -27 -109 -5 -75 -9 -92 -23 -96 -14 -4 -18
-22 -24 -106 -7 -90 -10 -101 -27 -101 -16 0 -19 -7 -19 -56 0 -39 -5 -60 -15
-68 -16 -12 -35 -96 -35 -156 0 -29 -4 -39 -20 -43 -17 -4 -20 -14 -20 -65 0
-34 -4 -63 -9 -66 -15 -9 -41 -102 -41 -145 0 -34 -3 -41 -20 -41 -18 0 -20
-7 -20 -54 0 -44 -3 -55 -18 -59 -23 -5 -32 -45 -32 -138 0 -62 -2 -69 -20
-69 -17 0 -20 -7 -20 -49 0 -44 -3 -49 -25 -55 -22 -6 -25 -11 -25 -55 0 -40
-3 -50 -20 -54 -17 -4 -20 -14 -20 -56 0 -36 -4 -53 -15 -57 -20 -8 -35 -67
-35 -141 0 -56 -2 -62 -22 -65 -20 -3 -23 -10 -26 -55 -3 -45 -6 -53 -23 -53
-16 0 -19 -7 -19 -49 0 -44 -3 -50 -22 -53 -20 -3 -23 -10 -26 -55 -3 -45 -6
-53 -23 -53 -16 0 -19 -7 -19 -54 0 -49 -2 -55 -22 -58 -20 -3 -23 -10 -26
-49 -2 -37 -7 -48 -23 -52 -16 -4 -19 -14 -19 -55 0 -45 -3 -51 -22 -54 -20
-3 -23 -10 -26 -55 -3 -44 -6 -53 -22 -53 -14 0 -20 -10 -25 -49 -5 -37 -11
-50 -26 -54 -16 -4 -19 -14 -19 -55 0 -45 -3 -51 -22 -54 -20 -3 -23 -10 -26
-50 -2 -34 -7 -48 -18 -48 -8 0 -16 -6 -18 -12 -21 -74 -31 -98 -43 -98 -25 0
-53 -39 -53 -75 0 -28 -4 -35 -19 -35 -22 0 -31 -19 -31 -65 0 -25 -5 -35 -20
-40 -16 -5 -20 -15 -20 -56 0 -46 -2 -49 -25 -49 -24 0 -25 -3 -25 -55 l0 -55
-39 0 c-43 0 -51 -10 -51 -63 0 -24 -6 -35 -22 -42 -18 -8 -24 -19 -26 -56 -3
-44 -5 -46 -40 -55 -29 -7 -38 -14 -40 -34 -6 -56 -13 -70 -32 -70 -17 0 -20
-7 -20 -48 l0 -48 -42 -10 c-43 -9 -43 -9 -46 -56 -3 -43 -5 -48 -28 -48 -18
0 -24 -5 -24 -22 0 -12 -5 -37 -12 -55 -10 -28 -17 -33 -45 -33 -33 0 -33 0
-33 -50 0 -49 -1 -50 -29 -50 -53 0 -61 -8 -61 -60 l0 -49 -42 -3 -43 -3 -3
-52 -3 -53 -45 0 -44 0 0 -50 0 -50 -38 0 c-41 0 -62 -14 -62 -42 0 -9 -5 -29
-12 -43 -9 -20 -18 -25 -49 -25 -62 0 -69 -6 -69 -61 l0 -49 -48 0 c-59 0 -80
-15 -84 -60 -3 -34 -4 -35 -56 -41 -66 -9 -82 -22 -82 -70 l0 -38 -67 -3 -68
-3 -3 -46 -3 -46 -52 -7 c-29 -3 -73 -6 -98 -6 -53 0 -64 -10 -74 -62 l-7 -38
-118 0 c-130 0 -150 -4 -150 -30 0 -9 -7 -31 -16 -49 l-16 -31 -286 2 -286 3
-7 35 c-13 62 -34 70 -180 70 l-128 0 -3 47 c-3 47 -4 48 -38 50 -19 2 -59 6
-87 9 -52 5 -53 6 -53 39 0 53 -20 65 -105 65 l-74 0 -3 52 -3 53 -56 3 c-52
3 -56 5 -67 36 -7 18 -12 40 -12 49 0 13 -10 17 -45 17 l-45 0 0 43 c0 52 -13
67 -57 67 -28 0 -33 3 -33 24 0 49 -17 75 -55 82 -32 6 -35 9 -35 39 0 55 -8
65 -51 65 l-38 0 -3 53 c-3 44 -6 52 -24 55 -17 2 -23 12 -27 44 -6 44 -16 55
-59 65 -26 5 -28 9 -28 54 0 41 -3 49 -19 49 -15 0 -20 10 -25 51 -5 39 -12
52 -26 56 -15 4 -20 14 -20 38 0 46 -9 65 -31 65 -15 0 -19 7 -19 39 0 37 -19
71 -41 71 -5 0 -9 16 -9 35 0 20 -7 41 -19 52 -10 10 -22 36 -26 58 -4 22 -15
48 -26 58 -12 11 -19 31 -19 52 0 24 -6 39 -20 47 -15 10 -20 24 -20 60 0 37
-4 50 -20 58 -14 8 -20 21 -20 48 0 42 -7 56 -32 65 -14 5 -18 18 -18 57 0 43
-3 50 -20 50 -17 0 -20 7 -20 39 0 51 -8 71 -30 71 -15 0 -18 13 -23 86 -4 68
-9 90 -26 108 -15 16 -21 35 -21 70 0 39 -4 49 -19 53 -15 4 -20 16 -23 62 -2
31 -14 77 -26 102 -14 29 -22 64 -22 98 0 44 -3 54 -20 58 -18 5 -20 14 -20
90 0 87 -10 123 -35 123 -12 0 -15 19 -15 101 0 92 -2 101 -20 106 -17 5 -20
15 -22 107 -3 94 -5 102 -26 111 -21 9 -22 14 -22 161 0 139 -2 152 -19 157
-16 4 -18 21 -23 203 -5 188 -7 199 -27 212 -20 14 -21 21 -21 265 0 227 -2
255 -19 291 -19 39 -20 77 -26 766 -3 399 -2 1007 2 1351 7 577 9 628 26 646
15 18 17 51 17 386 0 334 1 367 17 376 23 12 32 105 32 347 1 161 4 196 19
225 14 29 17 68 20 257 3 207 5 222 22 222 27 0 30 18 30 173 0 131 2 143 20
155 19 11 20 23 20 161 0 143 1 149 22 163 21 14 23 23 26 161 4 132 6 146 23
150 17 5 19 16 19 130 0 93 4 132 16 155 8 18 20 32 25 32 5 0 9 47 9 104 0
95 2 104 20 109 18 5 20 14 20 99 0 97 4 110 33 121 15 5 17 20 17 106 0 88 2
99 19 104 16 4 20 18 26 103 6 80 11 102 26 112 16 11 19 27 19 108 0 52 4 94
9 94 5 0 17 7 25 16 12 12 16 37 16 110 0 87 1 94 20 94 18 0 20 7 20 55 0 40
4 56 16 63 18 10 32 77 33 153 1 38 5 48 21 52 18 5 20 14 20 106 l0 101 25 0
c24 0 25 3 25 55 0 48 2 55 20 55 17 0 20 7 20 44 0 23 3 71 6 105 6 50 10 61
25 61 16 0 19 8 19 55 0 47 3 55 19 55 18 0 31 34 31 83 0 11 8 26 18 33 13
10 18 32 22 106 5 87 6 93 28 96 19 3 22 9 22 52 0 39 3 49 20 53 17 4 20 14
20 56 0 38 4 51 15 51 20 0 35 32 35 75 0 19 8 47 17 61 10 16 18 54 21 105 4
75 6 79 28 79 22 0 24 4 24 49 0 39 4 50 19 54 14 3 21 17 26 55 5 38 11 51
26 55 16 4 19 14 19 56 0 43 3 51 19 51 19 0 31 34 31 86 0 17 6 24 20 24 17
0 20 7 20 49 0 40 4 51 19 56 15 4 22 19 27 53 4 28 14 52 25 60 14 9 19 26
19 56 0 35 4 45 20 49 14 4 21 17 26 56 4 31 12 51 19 51 16 0 25 23 25 65 0
23 6 38 19 44 12 7 21 26 25 54 4 24 15 51 26 60 12 10 20 29 20 48 0 21 9 40
25 55 17 16 25 34 25 57 0 26 5 36 20 40 16 4 20 14 20 44 0 43 7 57 33 66 13
5 17 18 17 52 0 33 4 45 15 45 20 0 35 32 35 74 0 29 4 36 20 36 17 0 20 7 20
49 0 44 3 50 23 53 19 3 22 10 25 56 3 43 6 52 22 52 16 0 19 9 22 52 3 51 4
52 37 59 39 8 51 23 51 64 0 22 6 33 23 40 18 8 23 19 25 58 3 38 7 47 21 47
23 0 31 19 31 71 0 32 3 39 20 39 29 0 60 36 60 69 0 23 5 30 23 33 19 3 22
10 25 56 3 46 6 52 25 52 21 0 42 32 61 92 2 9 15 18 28 20 20 3 23 10 26 49
3 45 5 47 38 54 37 6 54 32 54 80 0 17 6 25 23 27 19 3 22 10 25 49 3 44 4 46
45 55 42 9 42 10 45 57 3 46 4 47 36 47 43 0 56 16 56 66 l0 43 43 3 42 3 3
48 c3 44 5 47 32 47 40 0 60 9 60 28 0 9 5 31 12 49 11 29 16 33 49 33 59 0
68 7 75 61 l7 49 43 0 c53 0 84 26 84 69 0 27 2 29 56 33 65 6 84 23 84 75 l0
33 63 0 c53 0 67 4 85 23 12 13 22 31 22 39 0 44 9 48 101 48 l88 0 3 48 3 47
145 5 c80 3 151 9 158 13 6 5 12 28 12 53 l0 44 435 0 435 0 0 -37 c0 -63 7
-67 124 -71 l105 -4 3 -47 3 -46 67 -3 67 -3 3 -52 3 -52 43 -3 c41 -3 42 -4
42 -40 0 -49 8 -59 52 -67 36 -7 37 -9 40 -54 l3 -46 43 -3 42 -3 0 -55 c0
-46 3 -54 19 -54 22 0 31 -19 31 -65 0 -25 5 -35 19 -40 15 -5 21 -17 23 -53
3 -40 6 -47 26 -50 19 -3 22 -9 22 -54 0 -41 3 -51 20 -55 16 -4 20 -14 20
-53 0 -42 3 -49 24 -54 23 -6 24 -10 28 -97 2 -71 7 -93 20 -103 11 -8 18 -30
20 -62 3 -42 6 -49 26 -52 21 -3 22 -7 22 -109 0 -96 2 -105 20 -110 18 -5 20
-14 21 -97 1 -120 12 -193 31 -209 13 -10 17 -39 20 -155 3 -116 7 -146 19
-155 13 -10 17 -48 23 -217 6 -189 8 -206 26 -219 19 -13 20 -26 20 -327 0
-201 4 -315 10 -319 6 -4 17 -22 25 -42 12 -29 15 -97 15 -369 0 -323 1 -333
20 -339 19 -6 20 -17 22 -213 3 -206 3 -207 26 -210 22 -3 22 -5 22 -159 0
-146 1 -155 20 -160 15 -4 20 -14 20 -42 0 -59 16 -73 80 -69 l55 3 3 49 c3
38 7 49 23 53 15 4 19 14 19 53 0 43 3 49 23 52 21 3 22 8 25 107 2 89 5 106
23 120 18 15 20 33 26 216 5 166 9 202 22 212 14 10 16 47 19 266 3 235 4 255
21 260 24 6 31 83 31 334 0 172 2 193 18 202 15 9 17 34 20 267 3 221 5 259
19 269 25 19 32 93 32 366 1 248 2 257 21 262 19 5 20 14 20 270 0 249 1 265
18 269 28 8 32 51 32 328 0 222 2 249 20 289 28 61 29 196 1 210 -12 7 -20 26
-25 59 -6 44 -9 50 -34 55 -30 6 -52 41 -52 82 0 18 -7 26 -25 31 -22 6 -25
11 -25 55 0 41 -3 49 -19 49 -15 0 -20 10 -25 51 -5 38 -12 52 -25 56 -13 3
-21 18 -25 43 -7 42 -18 55 -59 65 -25 7 -27 11 -27 56 0 46 -2 49 -25 49 -23
0 -25 3 -25 49 0 50 -9 61 -49 61 -17 0 -41 49 -41 83 0 9 -10 17 -22 19 -18
2 -24 12 -29 41 -7 41 -32 66 -66 67 -19 0 -23 5 -23 35 0 50 -29 75 -84 75
l-45 0 -3 48 -3 47 -46 3 c-45 3 -47 4 -53 40 -8 50 -36 72 -91 72 -43 0 -45
1 -45 29 0 15 -9 40 -21 55 -18 23 -27 26 -84 26 l-63 0 -6 44 c-4 26 -13 47
-22 50 -9 3 -58 6 -110 6 l-94 0 0 43 c0 24 -5 48 -12 55 -8 8 -52 12 -134 12
l-122 0 -8 47 c-7 38 -14 48 -34 54 -41 12 -1383 10 -1402 -2z"/>
<path d="M28040 27107 c-19 -9 -26 -22 -28 -50 -3 -29 -9 -41 -28 -49 -21 -10
-24 -18 -24 -60 0 -40 -3 -48 -19 -48 -22 0 -31 -19 -31 -68 0 -26 -6 -41 -20
-50 -17 -10 -20 -23 -20 -85 0 -91 -7 -117 -31 -117 -16 0 -19 -8 -19 -49 0
-40 -4 -51 -19 -56 -20 -6 -31 -33 -31 -79 0 -16 -8 -35 -17 -42 -14 -10 -19
-31 -21 -101 -3 -80 -6 -90 -25 -99 -17 -7 -23 -19 -25 -57 -2 -31 -10 -55
-23 -68 -16 -16 -19 -33 -19 -103 0 -81 -1 -84 -25 -90 -22 -6 -25 -11 -25
-56 0 -37 -5 -55 -20 -70 -17 -17 -20 -33 -20 -103 0 -76 -2 -83 -22 -92 -21
-9 -23 -17 -26 -112 -2 -95 -4 -103 -22 -103 -14 0 -20 -7 -20 -24 0 -49 -12
-84 -31 -89 -17 -5 -19 -15 -19 -106 0 -92 -2 -101 -19 -101 -23 0 -31 -19
-31 -70 0 -26 -6 -42 -17 -49 -14 -7 -18 -28 -21 -105 -4 -84 -7 -96 -22 -96
-25 0 -30 -19 -30 -121 0 -82 -1 -89 -20 -89 -18 0 -20 -7 -20 -55 0 -47 -3
-55 -19 -55 -24 0 -31 -26 -31 -127 0 -76 -2 -83 -20 -83 -18 0 -20 -7 -20
-55 0 -39 -4 -56 -16 -63 -19 -10 -33 -74 -34 -148 0 -42 -4 -53 -19 -57 -16
-4 -19 -19 -25 -105 -7 -87 -10 -101 -27 -105 -16 -4 -19 -14 -19 -61 0 -38
-5 -58 -15 -63 -16 -9 -35 -93 -35 -154 0 -29 -5 -39 -20 -44 -18 -6 -20 -15
-20 -103 0 -91 -1 -98 -22 -107 -19 -8 -24 -19 -26 -65 -2 -30 -10 -62 -18
-71 -9 -10 -17 -48 -21 -98 -5 -63 -10 -84 -22 -89 -27 -10 -31 -24 -31 -119
0 -86 -1 -93 -20 -93 -18 0 -20 -7 -20 -59 0 -41 -4 -60 -14 -64 -16 -7 -36
-89 -36 -151 0 -34 -4 -45 -19 -49 -16 -4 -19 -19 -25 -106 -7 -90 -10 -101
-27 -101 -16 0 -19 -7 -19 -56 0 -39 -5 -60 -15 -68 -16 -12 -35 -96 -35 -156
0 -29 -4 -39 -20 -43 -18 -5 -20 -14 -20 -105 0 -97 -1 -101 -22 -104 -20 -3
-23 -10 -26 -56 -2 -36 -9 -59 -23 -73 -16 -16 -19 -33 -19 -104 0 -77 -2 -85
-19 -85 -26 0 -31 -18 -31 -120 0 -79 -2 -88 -20 -93 -17 -4 -20 -14 -20 -54
0 -40 -4 -50 -22 -58 -21 -9 -23 -17 -26 -107 -2 -79 -6 -98 -18 -98 -17 0
-34 -39 -34 -79 0 -20 -6 -30 -20 -34 -17 -4 -20 -14 -20 -56 0 -39 -4 -53
-19 -60 -16 -9 -20 -27 -26 -106 -7 -84 -10 -95 -26 -95 -16 0 -19 -8 -19 -55
0 -52 -1 -55 -25 -55 -20 0 -25 -5 -25 -25 0 -41 -20 -71 -53 -81 -29 -8 -32
-13 -35 -56 l-3 -48 -175 -2 -176 -3 -17 -50 c-15 -44 -21 -51 -51 -55 -50 -8
-70 -42 -77 -134 -5 -61 -10 -79 -24 -87 -17 -9 -19 -24 -19 -144 0 -124 2
-136 20 -147 16 -10 20 -24 20 -65 0 -50 2 -53 25 -53 23 0 25 -4 25 -45 0
-57 15 -65 118 -65 75 0 79 -1 90 -25 7 -16 12 -80 12 -160 0 -124 -2 -135
-20 -145 -18 -10 -20 -21 -20 -109 0 -88 -2 -99 -18 -103 -22 -6 -32 -51 -32
-144 0 -53 -3 -62 -20 -67 -18 -5 -20 -14 -20 -105 0 -97 -1 -101 -22 -104
-20 -3 -23 -10 -26 -54 -2 -42 -7 -53 -22 -57 -18 -5 -20 -14 -20 -105 0 -97
-1 -101 -22 -104 -20 -3 -23 -10 -26 -54 -2 -40 -7 -53 -21 -57 -15 -3 -19
-19 -25 -81 -7 -77 -22 -126 -38 -126 -4 0 -8 -25 -8 -55 0 -47 -3 -55 -19
-55 -23 0 -31 -19 -31 -70 0 -29 -4 -39 -20 -43 -16 -4 -20 -14 -20 -52 0 -33
-5 -52 -16 -60 -17 -12 -32 -81 -33 -151 -1 -33 -5 -43 -21 -47 -17 -4 -20
-14 -20 -55 0 -45 -3 -51 -22 -54 -20 -3 -23 -10 -26 -55 -3 -45 -6 -53 -23
-53 -16 0 -19 -7 -19 -49 0 -44 -3 -50 -22 -53 -20 -3 -23 -10 -26 -55 -2 -44
-6 -53 -21 -53 -19 0 -31 -35 -31 -86 0 -17 -6 -24 -20 -24 -17 0 -20 -7 -20
-49 0 -44 -3 -50 -22 -53 -20 -3 -23 -10 -26 -55 -2 -38 -7 -53 -17 -53 -26 0
-55 -34 -61 -72 -5 -28 -12 -38 -28 -40 -17 -2 -22 -11 -24 -50 -3 -39 -6 -47
-25 -50 -19 -3 -22 -10 -25 -55 l-3 -52 -42 -3 -42 -3 -3 -46 -3 -47 -45 -7
c-31 -4 -44 -11 -44 -22 0 -9 -5 -31 -12 -49 l-11 -32 -91 -4 c-50 -2 -137 -1
-193 1 l-102 3 -3 47 c-3 45 -4 46 -45 55 -41 9 -42 9 -45 55 -3 39 -6 46 -25
49 -20 3 -23 9 -23 53 0 38 -4 51 -17 56 -26 9 -33 23 -33 66 0 30 -4 37 -20
37 -18 0 -20 7 -20 55 0 52 -1 55 -25 55 l-25 0 0 245 c0 232 -1 246 -20 265
-13 13 -20 33 -20 59 0 69 -3 71 -96 71 -65 0 -84 -3 -84 -14 0 -7 -7 -19 -15
-26 -8 -7 -15 -21 -15 -31 0 -16 -7 -25 -45 -57 -11 -10 -15 -34 -15 -102 0
-84 -1 -89 -22 -92 l-23 -3 0 -365 0 -365 23 -3 c21 -3 22 -7 22 -108 0 -97 1
-104 20 -104 18 0 20 -7 20 -55 0 -52 1 -55 25 -55 25 0 25 -1 25 -90 0 -75 3
-93 19 -109 10 -10 22 -40 25 -66 6 -34 13 -49 26 -52 15 -4 20 -16 22 -52 2
-37 8 -48 26 -56 18 -8 22 -18 22 -53 0 -35 4 -45 19 -49 14 -3 22 -18 28 -51
7 -43 11 -48 45 -56 36 -9 37 -11 40 -60 3 -44 6 -51 26 -54 18 -3 22 -10 22
-37 0 -57 7 -64 70 -71 61 -7 70 -15 70 -70 0 -12 7 -25 16 -28 26 -10 244 -7
265 4 11 7 21 26 25 50 l7 40 61 1 c100 2 111 7 114 62 l3 47 45 0 44 0 0 55
0 55 44 0 c47 0 56 11 56 72 0 23 5 27 39 33 41 7 51 21 51 78 0 20 5 27 20
27 18 0 20 7 20 54 l0 55 43 3 42 3 3 47 c3 39 7 47 28 52 21 6 24 12 24 56 0
43 3 50 20 50 18 0 20 7 20 55 0 52 1 55 25 55 15 0 25 6 25 14 0 7 7 19 15
26 8 7 15 23 15 36 0 15 9 27 28 36 22 11 28 21 30 55 2 30 8 44 21 48 13 4
20 19 24 51 3 31 11 50 26 60 16 12 21 26 21 60 0 33 4 44 15 44 17 0 35 39
35 75 0 14 9 29 20 35 15 8 20 21 20 55 0 33 5 47 19 54 14 8 21 26 26 73 7
69 24 128 37 128 4 0 8 25 8 55 0 52 1 55 25 55 23 0 25 3 25 50 0 37 4 50 15
50 20 0 35 32 35 73 0 26 5 36 20 40 17 4 20 14 20 60 0 35 5 59 14 66 17 14
36 95 36 151 0 33 3 40 20 40 18 0 20 7 20 55 0 47 3 55 19 55 24 0 31 26 31
128 0 75 2 82 20 82 18 0 20 7 20 55 0 47 3 55 19 55 24 0 31 26 31 128 0 75
2 82 20 82 17 0 20 7 20 47 0 35 6 53 23 71 19 20 23 37 25 113 4 77 6 89 22
89 21 0 30 42 30 141 0 58 3 67 20 72 17 4 20 14 20 55 0 38 5 53 20 63 16 12
21 30 26 106 6 78 10 92 25 96 17 5 19 16 19 105 0 98 0 100 25 106 23 6 25
11 25 60 0 34 5 58 14 65 8 7 17 30 21 52 l7 39 573 0 573 0 6 -35 c4 -19 17
-44 28 -55 20 -18 36 -20 195 -20 l173 0 0 -29 c0 -16 4 -41 10 -55 8 -22 16
-26 50 -26 l40 0 0 -50 c0 -43 3 -50 20 -50 18 0 20 -8 22 -152 3 -148 4 -153
26 -163 21 -10 22 -13 22 -167 0 -149 1 -158 19 -158 18 0 19 -11 23 -179 3
-167 5 -181 26 -210 21 -28 22 -40 22 -187 0 -147 1 -156 20 -161 19 -5 20
-14 20 -142 0 -154 4 -178 31 -186 18 -6 19 -18 19 -157 0 -130 2 -154 18
-171 14 -15 18 -44 22 -156 5 -139 10 -161 36 -161 12 0 14 -27 14 -154 0
-142 2 -155 19 -161 21 -6 31 -73 31 -211 0 -73 3 -85 20 -96 18 -11 20 -24
20 -105 0 -105 5 -123 31 -123 17 0 19 -9 19 -99 0 -90 2 -100 19 -106 16 -5
21 -17 23 -58 3 -45 6 -52 26 -55 19 -3 22 -9 22 -52 0 -50 10 -60 67 -60 19
0 22 -6 25 -48 l3 -47 268 -3 c264 -2 267 -2 267 18 0 12 7 34 15 50 13 26 21
30 54 30 64 0 71 6 71 61 l0 49 45 0 c32 0 45 4 45 14 0 7 6 19 14 25 7 6 16
25 20 41 4 24 11 30 31 30 23 0 25 3 25 49 0 46 1 49 32 55 45 9 58 24 58 65
0 28 5 38 23 46 18 8 23 19 25 58 2 38 7 47 21 47 14 0 19 11 24 51 5 36 13
56 27 66 18 12 20 25 20 109 0 86 2 94 19 94 29 0 32 44 29 355 l-3 270 -22 3
c-20 3 -23 9 -23 46 0 50 -18 71 -54 62 -24 -6 -36 -30 -36 -78 0 -26 -3 -28
-45 -28 l-45 0 0 -49 c0 -48 0 -49 -37 -56 -45 -8 -53 -18 -53 -67 0 -30 -4
-37 -22 -40 -20 -3 -24 -11 -28 -53 -5 -49 -6 -50 -40 -53 -41 -4 -50 -15 -50
-64 0 -36 -2 -38 -33 -38 -44 0 -57 -15 -57 -67 l0 -43 -49 0 c-73 0 -81 -5
-81 -56 l0 -44 -68 0 -69 0 -9 48 c-9 45 -10 47 -49 52 -40 5 -40 5 -43 52 -2
36 -8 48 -23 53 -11 4 -19 15 -19 28 0 40 -12 66 -31 72 -15 5 -19 16 -19 57
0 41 -3 51 -20 55 -18 5 -20 14 -20 84 0 86 -12 129 -35 129 -13 0 -15 23 -15
156 0 147 -1 156 -20 161 -19 5 -20 14 -20 238 0 261 -4 295 -31 295 -18 0
-19 13 -19 304 0 167 -3 311 -6 320 -3 9 -12 16 -20 16 -10 0 -13 69 -16 370
-2 237 -7 373 -13 378 -32 22 -35 63 -35 547 0 465 -1 486 -19 504 -19 19 -20
44 -23 648 l-3 628 -22 35 -23 35 0 2847 c0 1759 -4 2849 -9 2853 -30 18 -41
71 -41 197 0 120 -1 128 -19 128 -17 0 -20 8 -23 53 l-3 52 -80 3 c-50 1 -89
-3 -105 -11z m-197 -3297 c15 -41 17 -215 17 -2152 l0 -2108 -519 0 c-574 0
-531 -5 -531 65 0 28 -4 33 -31 39 -17 3 -58 6 -90 6 l-59 0 0 50 c0 45 -2 50
-22 51 l-23 0 23 9 c21 9 22 14 22 125 0 63 4 115 9 115 21 0 41 95 41 192 0
89 2 98 19 98 15 0 19 10 25 53 3 28 6 75 6 103 0 43 3 53 20 57 18 5 20 14
20 106 0 56 4 101 9 101 5 0 17 7 25 16 12 12 16 37 16 110 0 87 1 94 20 94
18 0 20 7 20 75 0 74 13 123 37 138 8 5 13 30 13 68 0 39 6 69 17 85 10 15 18
54 21 99 4 58 8 74 22 78 18 5 30 67 30 158 0 38 4 48 20 52 18 5 20 14 20
105 0 97 1 101 23 104 21 3 22 8 25 106 2 91 5 102 21 102 21 0 31 50 31 150
0 49 3 58 20 63 17 4 20 14 20 57 0 37 5 56 16 65 17 12 32 81 33 152 1 32 6
45 21 53 18 10 20 21 20 110 0 95 1 99 23 102 21 3 22 8 25 106 2 94 4 102 22
102 17 0 20 7 20 51 0 40 5 55 21 68 18 14 22 31 26 108 5 78 8 92 24 96 17 5
19 16 19 105 0 97 1 101 23 104 19 3 22 10 25 53 2 32 10 56 21 66 14 13 20
40 25 107 6 77 10 91 27 95 17 5 19 15 19 104 0 92 1 99 23 108 18 8 23 19 25
57 2 35 8 51 23 58 17 9 19 22 19 104 0 92 1 94 25 100 22 6 25 11 25 56 0 39
4 52 20 60 18 10 20 21 20 105 0 89 1 94 23 97 l22 3 6 -460 c5 -394 8 -466
22 -505z"/>
<path d="M20465 26793 c-53 -6 -65 -18 -65 -64 l0 -39 -158 0 c-181 0 -198 -6
-208 -71 l-7 -39 -101 0 c-66 0 -106 -4 -114 -12 -7 -7 -12 -29 -12 -50 l0
-38 -62 -1 c-102 -2 -112 -7 -116 -62 l-3 -47 -67 0 c-81 -1 -102 -14 -109
-69 -6 -41 -6 -41 -50 -41 -62 0 -82 -13 -89 -60 -6 -38 -8 -40 -43 -40 -41 0
-72 -30 -85 -82 -6 -25 -11 -28 -46 -28 -45 0 -60 -18 -60 -74 0 -34 -1 -35
-42 -38 l-43 -3 -3 -47 -3 -47 -42 -3 -42 -3 -3 -52 -3 -52 -42 -3 -42 -3 -3
-52 c-3 -52 -3 -53 -36 -53 -42 0 -56 -15 -56 -61 0 -31 -4 -38 -22 -41 -20
-3 -23 -10 -26 -55 -2 -43 -6 -53 -21 -53 -25 0 -52 -33 -60 -72 -5 -23 -13
-34 -28 -36 -16 -2 -22 -13 -27 -51 -5 -37 -11 -50 -26 -54 -17 -4 -20 -14
-20 -55 0 -45 -3 -51 -22 -54 -20 -3 -23 -10 -26 -55 -3 -45 -6 -53 -23 -53
-16 0 -19 -7 -19 -49 0 -44 -3 -50 -22 -53 -20 -3 -23 -10 -26 -54 -2 -42 -7
-53 -22 -57 -17 -4 -20 -14 -20 -57 0 -40 -5 -56 -20 -68 -16 -14 -21 -34 -26
-104 -6 -74 -10 -88 -24 -88 -14 0 -19 -13 -24 -62 -4 -35 -12 -66 -18 -69
-13 -8 -27 -80 -28 -143 0 -33 -5 -53 -16 -61 -18 -13 -32 -82 -33 -158 -1
-26 -8 -58 -17 -72 -10 -15 -17 -56 -20 -117 -6 -103 -20 -164 -40 -172 -11
-4 -14 -31 -14 -107 0 -92 -2 -101 -20 -106 -20 -5 -20 -14 -20 -372 0 -351 6
-441 29 -449 6 -2 11 -30 11 -62 0 -37 5 -62 13 -67 24 -15 37 -64 37 -138 0
-68 2 -75 20 -75 17 0 20 -7 20 -50 0 -29 5 -52 13 -57 22 -14 37 -63 37 -123
0 -66 7 -90 25 -90 15 0 25 -31 25 -77 0 -26 4 -33 20 -33 17 0 20 -7 20 -50
0 -45 3 -50 25 -56 22 -6 25 -11 25 -55 l0 -50 108 3 107 3 3 1124 c2 915 5
1127 15 1140 24 29 37 97 37 195 0 89 1 96 20 96 19 0 20 7 20 105 l0 105 25
0 c23 0 25 3 25 51 0 42 3 52 20 56 16 4 20 14 20 52 0 38 4 48 23 56 18 8 23
19 25 58 3 39 7 47 22 47 16 0 21 10 26 50 5 36 12 51 25 55 15 5 19 16 19 55
0 43 3 49 23 52 19 3 22 10 25 56 3 49 5 52 30 52 39 0 49 10 56 57 5 29 13
43 27 46 16 4 19 14 19 56 0 50 1 51 29 51 53 0 61 8 61 61 0 44 2 49 23 49
25 0 57 44 57 79 0 16 6 21 26 21 35 0 74 42 74 79 0 25 4 29 40 35 43 7 45 9
55 69 6 36 7 37 50 37 l45 0 0 50 0 50 63 0 c78 0 103 16 112 70 l7 40 139 0
139 0 0 -35 c0 -22 8 -43 20 -55 18 -18 20 -33 20 -180 0 -147 -2 -162 -20
-180 -19 -19 -20 -33 -20 -216 0 -169 -2 -198 -16 -208 -24 -18 -33 -86 -34
-258 0 -133 -2 -158 -15 -158 -20 0 -23 -21 -29 -206 -4 -150 -16 -214 -38
-214 -4 0 -8 -72 -8 -160 0 -149 -1 -160 -19 -160 -22 0 -31 -55 -31 -207 0
-90 -3 -106 -20 -123 -18 -18 -20 -33 -20 -166 0 -136 -1 -147 -21 -163 -19
-15 -22 -30 -27 -171 -4 -118 -9 -161 -21 -180 -13 -19 -17 -59 -19 -195 -3
-164 -4 -171 -25 -180 -21 -10 -22 -17 -25 -161 -2 -142 -4 -152 -22 -157 -19
-5 -20 -14 -20 -159 0 -149 -1 -154 -22 -163 -22 -10 -23 -15 -26 -162 -2
-138 -4 -152 -21 -158 -17 -5 -20 -22 -26 -158 -6 -130 -10 -155 -26 -170 -17
-16 -19 -34 -19 -166 0 -136 -2 -149 -18 -153 -16 -4 -20 -19 -25 -83 -4 -43
-7 -112 -7 -153 0 -58 -4 -80 -17 -95 -15 -16 -19 -43 -21 -171 -3 -104 -8
-156 -17 -166 -22 -26 -28 -71 -32 -232 -4 -149 -5 -158 -23 -158 -19 0 -20
-8 -20 -159 0 -158 0 -160 -22 -163 -23 -3 -23 -6 -26 -160 -2 -150 -4 -158
-22 -158 -19 0 -20 -7 -20 -160 0 -150 -1 -160 -19 -160 -28 0 -31 -18 -31
-175 0 -131 -2 -143 -19 -148 -17 -4 -19 -20 -26 -158 -7 -134 -10 -156 -26
-167 -17 -12 -19 -28 -19 -158 0 -135 -2 -147 -21 -162 -18 -15 -21 -32 -26
-167 -5 -121 -9 -152 -22 -162 -13 -9 -17 -39 -19 -165 -2 -84 -8 -158 -12
-163 -26 -32 -40 -107 -40 -222 0 -114 -11 -173 -32 -173 -4 0 -8 -72 -8 -159
0 -158 0 -160 -22 -163 -23 -3 -23 -6 -26 -160 -2 -150 -4 -158 -22 -158 -19
0 -20 -7 -20 -158 0 -154 -1 -157 -22 -167 -22 -10 -23 -15 -26 -160 -2 -134
-4 -152 -22 -165 -16 -13 -19 -34 -25 -170 -5 -113 -11 -164 -23 -190 -13 -27
-18 -72 -20 -207 -3 -156 -5 -172 -22 -176 -25 -6 -34 -115 -27 -326 4 -143 7
-167 23 -178 10 -7 21 -13 25 -13 19 0 39 35 39 66 l0 34 54 0 c80 0 86 4 86
60 l0 49 43 3 42 3 3 47 c3 39 7 47 28 52 17 5 24 13 24 31 0 28 20 75 32 75
21 0 48 42 48 74 0 19 7 42 16 50 22 22 34 71 34 138 0 51 2 57 23 60 19 3 22
10 25 54 2 40 7 53 21 57 16 4 20 19 26 105 6 87 10 101 26 105 17 5 19 15 19
111 0 97 2 106 19 106 24 0 31 40 31 196 0 113 1 122 20 127 19 5 20 14 20
223 0 166 3 221 13 233 27 32 37 100 37 255 0 132 3 161 18 183 14 23 18 56
20 202 4 164 5 175 25 192 21 16 22 27 26 212 3 182 4 196 22 200 18 5 19 17
19 168 0 120 3 167 13 178 27 32 37 100 37 248 0 138 2 151 18 155 16 4 20 19
25 89 4 46 7 117 7 158 0 57 4 79 18 94 15 16 17 45 21 208 3 173 5 189 21
189 25 0 30 27 30 180 0 124 2 136 20 148 19 11 20 23 20 163 0 142 1 152 21
168 20 16 22 29 26 187 4 142 8 174 24 202 16 29 19 54 19 187 0 152 0 154 23
157 22 3 22 6 25 161 2 149 4 157 22 157 19 0 20 7 20 159 0 158 0 160 23 163
22 3 22 6 25 161 2 144 4 157 21 157 15 0 19 12 24 83 4 45 7 116 7 158 0 68
2 77 20 82 19 5 20 14 20 157 0 141 1 152 19 157 25 6 31 41 31 190 0 116 1
125 20 130 19 5 20 14 20 159 0 88 4 154 9 154 5 0 17 7 25 16 13 13 16 42 16
159 0 135 1 144 20 150 19 6 20 15 20 160 0 152 0 154 23 157 21 3 22 8 25
111 2 91 6 111 22 127 18 18 20 34 20 158 0 133 1 138 23 147 21 10 22 15 25
163 2 144 4 152 22 152 12 0 20 7 21 18 12 239 15 271 32 289 14 16 17 39 17
121 0 93 2 102 19 102 22 0 31 40 31 151 0 52 5 87 17 110 13 25 19 66 21 150
4 106 6 116 25 125 20 8 22 18 25 108 2 88 5 99 22 103 18 5 20 14 20 109 l0
104 25 0 c23 0 25 3 25 50 0 43 3 50 20 50 18 0 20 7 20 55 l0 55 44 0 c47 0
56 11 56 71 0 24 4 27 53 33 68 8 357 8 436 0 l61 -7 0 -39 c0 -47 21 -58 116
-58 l64 0 0 -37 c0 -57 11 -66 80 -71 46 -3 63 -9 66 -21 3 -9 12 -31 21 -48
15 -30 20 -33 65 -33 46 0 48 -1 48 -29 0 -15 9 -40 21 -55 17 -21 29 -26 65
-26 l44 0 0 -49 c0 -53 8 -61 61 -61 28 0 29 -1 29 -50 0 -43 3 -50 20 -50 15
0 20 -7 20 -29 0 -41 17 -81 34 -81 15 0 26 -21 26 -50 0 -11 8 -27 19 -37 10
-10 21 -34 25 -54 4 -21 13 -42 21 -49 9 -8 15 -30 15 -56 0 -31 6 -49 21 -63
13 -12 23 -37 26 -65 4 -33 11 -47 24 -51 17 -6 19 -17 19 -95 0 -67 4 -92 16
-104 8 -9 20 -16 25 -16 5 0 9 -47 9 -105 0 -98 1 -105 20 -105 20 0 20 -7 20
-534 0 -526 0 -535 -20 -541 -19 -6 -20 -15 -20 -160 0 -152 0 -154 -22 -157
-22 -3 -23 -8 -26 -105 -2 -92 -5 -103 -21 -103 -18 0 -31 -34 -31 -81 0 -11
-9 -28 -20 -39 -16 -16 -20 -33 -20 -80 0 -60 -15 -109 -37 -123 -8 -5 -13
-28 -13 -57 0 -43 -3 -50 -20 -50 -18 0 -20 -7 -20 -55 0 -52 -1 -55 -25 -55
-23 0 -25 -3 -25 -50 0 -43 -3 -50 -20 -50 -14 0 -20 -7 -20 -24 0 -40 -27
-81 -57 -86 -25 -5 -28 -10 -31 -52 -2 -38 -7 -48 -25 -54 -35 -10 -55 -33
-61 -69 -5 -25 -13 -35 -29 -37 -19 -3 -22 -10 -25 -55 l-3 -53 -45 0 c-65 0
-84 -13 -84 -59 0 -37 -1 -38 -47 -47 l-48 -9 -3 -47 -3 -47 -62 -3 c-61 -3
-62 -4 -65 -33 -7 -75 -6 -75 -77 -75 -54 0 -65 -3 -65 -17 0 -9 -5 -31 -12
-48 -11 -31 -14 -33 -80 -38 -37 -3 -73 -9 -78 -12 -6 -3 -10 -26 -10 -51 l0
-44 -71 0 c-85 0 -109 -11 -109 -50 0 -57 -5 -60 -95 -60 -91 0 -95 -3 -95
-65 l0 -33 -84 -3 c-95 -4 -121 -19 -132 -74 l-6 -33 -83 -4 c-46 -1 -86 -6
-90 -10 -4 -4 -10 -27 -12 -53 -5 -35 -10 -45 -24 -45 -17 0 -19 -9 -19 -101
0 -92 2 -101 20 -106 16 -4 20 -14 20 -53 0 -42 3 -49 24 -54 21 -5 24 -12 29
-87 3 -50 11 -87 20 -97 8 -9 18 -41 22 -71 5 -40 12 -55 26 -58 15 -4 19 -15
19 -55 0 -41 3 -51 20 -55 15 -4 20 -14 20 -40 0 -41 15 -73 35 -73 11 0 15
-13 15 -50 0 -43 3 -50 20 -50 17 0 20 -7 20 -39 0 -51 8 -71 30 -71 14 0 18
-13 23 -77 4 -55 12 -84 26 -104 14 -19 21 -43 21 -73 0 -35 5 -48 20 -56 15
-8 20 -21 20 -56 0 -38 4 -46 25 -56 22 -10 25 -18 25 -60 0 -41 3 -48 19 -48
17 0 20 -8 23 -52 3 -46 6 -53 26 -56 19 -3 22 -9 22 -54 0 -41 3 -51 20 -55
17 -4 20 -14 20 -54 0 -26 5 -51 10 -54 6 -3 10 -17 10 -29 0 -13 7 -29 15
-36 10 -8 15 -30 15 -61 0 -37 5 -54 22 -71 14 -14 23 -38 26 -70 4 -38 8 -48
23 -48 15 0 19 -9 21 -52 3 -46 6 -53 26 -56 19 -3 22 -9 22 -54 0 -41 3 -51
20 -55 17 -4 20 -14 20 -54 0 -46 2 -49 25 -49 24 0 25 -3 25 -55 0 -48 2 -55
20 -55 17 0 20 -7 20 -50 0 -33 5 -52 14 -56 16 -6 34 -62 39 -127 3 -26 12
-56 22 -67 10 -11 20 -40 23 -66 4 -34 10 -48 23 -51 15 -4 19 -15 19 -55 0
-41 3 -51 20 -55 15 -4 21 -17 26 -55 5 -37 12 -52 25 -55 15 -4 19 -15 19
-54 0 -46 2 -49 25 -49 24 0 25 -3 25 -55 0 -48 3 -55 19 -55 17 0 20 -8 23
-52 3 -46 6 -53 26 -56 19 -3 22 -9 22 -53 0 -42 3 -49 19 -49 17 0 20 -8 23
-52 3 -46 6 -53 26 -56 19 -3 22 -9 22 -54 0 -41 3 -51 19 -55 16 -4 21 -15
23 -52 3 -39 6 -46 26 -49 20 -3 22 -9 22 -58 0 -47 2 -54 20 -54 14 0 20 -7
20 -24 0 -52 12 -86 31 -86 16 0 19 -8 19 -50 0 -47 2 -50 25 -50 24 0 25 -3
25 -55 0 -48 3 -55 19 -55 17 0 20 -8 23 -52 3 -46 6 -53 26 -56 19 -3 22 -9
22 -53 0 -42 3 -49 19 -49 17 0 20 -8 23 -52 3 -46 6 -53 26 -56 19 -3 22 -9
22 -52 0 -40 4 -50 20 -55 13 -4 20 -15 20 -33 0 -47 11 -72 31 -72 16 0 19
-8 19 -50 0 -45 3 -52 25 -60 21 -8 25 -16 25 -54 0 -35 4 -45 19 -49 16 -4
20 -15 23 -53 3 -42 6 -49 26 -52 19 -3 22 -9 22 -48 0 -38 4 -46 25 -56 20
-9 25 -18 25 -49 0 -31 5 -41 29 -55 32 -19 51 -52 51 -89 0 -20 5 -25 25 -25
24 0 25 -3 25 -55 0 -48 3 -55 19 -55 17 0 20 -8 23 -47 2 -39 7 -50 26 -58
18 -8 22 -18 22 -57 0 -45 2 -48 25 -48 23 0 25 -3 25 -51 0 -42 3 -52 19 -56
16 -4 21 -15 23 -52 3 -39 6 -46 26 -49 19 -3 22 -9 22 -48 0 -41 3 -46 31
-58 33 -14 59 -54 59 -92 0 -17 6 -24 20 -24 17 0 20 -7 20 -45 0 -39 3 -47
25 -55 22 -8 25 -16 25 -55 0 -34 4 -47 18 -52 25 -9 32 -23 32 -64 0 -31 4
-38 25 -43 18 -5 25 -13 25 -30 0 -31 36 -76 61 -76 16 0 19 -7 19 -55 0 -52
1 -55 25 -55 23 0 25 -3 25 -51 0 -42 3 -52 20 -56 14 -4 20 -14 20 -32 0 -53
11 -71 41 -71 25 0 30 -5 40 -42 6 -24 13 -49 15 -55 2 -7 12 -13 23 -13 17 0
20 -8 23 -52 3 -46 6 -53 25 -56 19 -3 22 -11 25 -50 3 -46 4 -47 39 -50 32
-3 38 -7 43 -34 3 -17 6 -41 6 -54 0 -17 6 -24 20 -24 17 0 20 -7 20 -50 0
-44 3 -50 24 -56 21 -5 25 -13 28 -52 l3 -47 43 -3 42 -3 0 -55 c0 -46 3 -54
19 -54 15 0 20 -10 25 -49 6 -48 7 -49 46 -56 37 -6 40 -9 40 -40 0 -46 9 -65
31 -65 16 0 19 -7 19 -43 0 -52 13 -67 57 -67 33 0 33 0 33 -50 0 -45 3 -50
25 -56 19 -5 25 -13 25 -34 0 -47 10 -60 51 -66 38 -6 38 -7 41 -58 l3 -51 43
-3 42 -3 0 -49 c0 -52 8 -60 61 -60 28 0 29 -1 29 -50 l0 -50 33 0 c35 0 36
-1 63 -97 2 -8 20 -13 43 -13 l40 0 3 -47 c3 -48 3 -48 46 -57 36 -8 42 -14
42 -35 0 -60 9 -71 56 -71 l44 0 0 -45 c0 -40 3 -47 26 -55 14 -6 43 -10 65
-10 l39 0 0 -50 0 -49 50 -7 c48 -6 50 -8 50 -38 0 -48 13 -59 74 -64 l56 -4
0 -37 c0 -53 10 -62 79 -68 56 -5 61 -8 61 -30 0 -56 44 -83 137 -83 l42 0 3
-47 3 -48 88 -3 87 -3 0 -42 c0 -24 5 -48 12 -55 8 -8 48 -12 114 -12 l103 0
3 -47 3 -48 160 -10 c160 -10 160 -10 163 -35 2 -14 13 -35 25 -47 20 -23 23
-23 302 -23 274 0 281 1 299 21 10 12 22 34 28 49 9 27 10 28 123 35 l115 7
20 33 c11 18 20 40 20 49 0 13 11 16 56 16 78 0 94 11 94 65 l0 45 45 0 c32 0
45 4 45 14 0 7 7 19 15 26 8 7 15 23 15 35 0 18 7 24 38 30 51 9 62 21 62 66
0 31 4 38 23 41 19 3 22 10 25 56 3 48 5 52 28 52 47 0 64 17 64 65 0 38 3 44
23 47 19 3 22 10 25 49 2 37 7 48 23 52 13 4 19 14 19 34 0 45 11 71 31 76 15
4 19 14 19 55 0 40 4 51 19 55 17 4 20 18 26 105 6 86 10 101 26 105 18 5 19
17 19 150 0 105 -3 148 -12 153 -18 12 -178 18 -243 9 -51 -6 -55 -8 -55 -33
0 -59 -10 -72 -51 -72 -23 0 -41 -5 -43 -12 -2 -7 -9 -32 -15 -56 -11 -38 -15
-42 -42 -42 -47 0 -68 -16 -75 -59 -6 -36 -9 -39 -48 -47 -40 -9 -41 -10 -44
-56 l-3 -48 -44 0 c-41 0 -45 -3 -51 -27 -17 -80 -20 -83 -95 -83 -65 0 -70
-2 -79 -26 -6 -14 -10 -36 -10 -50 0 -24 -1 -24 -102 -24 -57 0 -126 -3 -155
-6 l-51 -7 -7 -48 -7 -49 -94 0 c-93 0 -94 0 -94 24 0 14 -11 37 -24 53 l-24
28 -156 4 -156 3 -9 34 c-16 57 -30 64 -124 64 l-85 0 -7 48 c-4 26 -12 50
-18 54 -7 4 -47 8 -89 8 l-78 0 0 49 c0 55 -8 61 -87 61 -42 0 -43 1 -43 34 0
61 -6 66 -76 66 l-63 0 -3 53 -3 52 -40 3 c-44 4 -55 14 -55 55 0 22 -7 31
-35 43 -19 7 -48 14 -65 14 -29 0 -30 1 -30 50 l0 50 -45 0 -45 0 0 45 c0 48
-16 65 -64 65 -22 0 -26 4 -26 31 0 42 -17 69 -43 69 -34 0 -46 12 -55 55 -7
35 -12 41 -45 49 -29 8 -37 14 -37 32 0 47 -18 73 -55 80 -29 5 -35 10 -35 33
0 54 -10 68 -51 75 -34 5 -39 10 -39 34 0 58 -10 72 -49 72 -37 0 -37 0 -47
53 l-9 52 -42 3 -43 3 0 50 c0 42 -3 49 -20 49 -16 0 -20 7 -20 36 0 54 -15
74 -55 74 -34 0 -35 1 -35 39 0 52 -8 71 -30 71 -13 0 -21 10 -25 33 -9 41
-32 67 -61 67 -21 0 -23 5 -26 53 l-3 52 -42 3 -42 3 -3 52 c-3 45 -6 52 -25
55 -20 3 -23 9 -23 53 0 45 -2 49 -23 49 -19 0 -26 8 -36 40 -6 22 -16 40 -21
40 -6 0 -10 7 -10 15 0 8 -9 15 -19 15 -17 0 -20 8 -23 48 -2 38 -7 49 -25 57
-16 7 -23 18 -23 37 0 35 -32 68 -64 68 -23 0 -25 4 -28 53 -3 45 -6 52 -25
55 -20 3 -23 9 -23 48 0 41 -3 46 -30 56 -32 11 -60 52 -60 88 0 13 -7 20 -19
20 -17 0 -20 8 -23 53 -3 45 -6 52 -25 55 -20 3 -23 9 -23 52 0 43 -3 49 -22
52 -19 2 -24 10 -26 43 -3 43 -23 65 -58 65 -21 0 -23 6 -26 53 -3 45 -6 52
-25 55 -20 3 -23 9 -23 52 0 43 -3 48 -25 54 -22 6 -25 12 -25 52 0 37 -4 47
-20 51 -12 3 -20 14 -20 27 0 41 -13 68 -36 77 -13 4 -24 16 -24 24 0 32 -40
95 -60 95 -17 0 -20 7 -20 50 0 43 -3 50 -19 50 -17 0 -20 8 -23 53 -3 45 -6
52 -25 55 -20 3 -23 9 -23 53 0 41 -3 49 -19 49 -15 0 -20 10 -25 51 -5 39
-12 52 -26 56 -15 4 -20 14 -20 42 0 41 -7 55 -32 64 -13 4 -18 17 -18 42 0
25 -7 41 -25 57 -16 13 -25 32 -25 50 0 18 -9 36 -25 50 -14 12 -25 30 -25 39
0 36 -34 88 -57 89 -21 0 -23 5 -23 50 0 43 -3 50 -19 50 -17 0 -20 8 -23 53
-3 45 -6 52 -25 55 -20 3 -23 9 -23 54 0 41 -3 51 -19 55 -16 4 -21 15 -23 52
-3 39 -6 46 -25 49 -21 3 -23 9 -23 58 0 46 -3 54 -19 54 -15 0 -20 10 -26 55
-5 45 -10 55 -26 55 -16 0 -19 7 -19 50 0 47 -2 50 -25 50 -24 0 -25 3 -25 55
0 48 -3 55 -19 55 -17 0 -20 8 -23 53 -3 45 -6 52 -25 55 -20 3 -23 9 -23 53
0 42 -3 49 -19 49 -17 0 -20 8 -23 53 -3 45 -6 52 -25 55 -20 3 -23 9 -23 54
0 41 -3 51 -19 55 -16 4 -21 15 -23 52 -2 38 -7 47 -24 49 -19 3 -22 11 -26
65 -2 38 -12 79 -26 105 -12 23 -22 58 -22 76 0 44 -9 66 -26 66 -10 0 -14 13
-14 44 0 42 -18 76 -41 76 -5 0 -9 23 -9 50 0 43 -3 50 -19 50 -17 0 -20 8
-23 53 -3 45 -6 52 -25 55 -20 3 -23 9 -23 54 0 41 -3 51 -20 55 -16 4 -20 14
-20 49 0 38 -4 46 -25 56 -22 10 -25 18 -25 60 0 41 -3 48 -20 48 -17 0 -20 7
-20 50 0 33 -5 52 -14 56 -17 6 -33 62 -40 134 -4 40 -11 59 -26 69 -15 10
-20 24 -20 61 0 39 -4 49 -19 53 -16 4 -20 15 -23 53 -3 42 -6 49 -25 52 -21
3 -23 9 -23 58 0 47 -3 54 -19 54 -17 0 -20 8 -23 53 -3 45 -6 52 -25 55 -22
3 -23 8 -23 93 0 77 -3 92 -20 106 -13 11 -20 30 -20 51 0 40 -15 72 -35 72
-11 0 -15 13 -15 50 0 42 -3 50 -19 50 -17 0 -19 11 -26 105 -6 91 -9 105 -25
105 -15 0 -18 12 -22 90 -4 77 -7 93 -28 115 -21 23 -23 30 -17 105 10 121 3
116 159 123 147 6 158 12 158 73 l0 33 68 3 67 3 3 53 3 52 45 0 c66 0 84 13
84 59 0 38 1 39 41 46 42 7 59 30 59 79 0 18 8 24 38 32 34 8 38 12 46 57 7
35 14 47 27 47 14 0 19 10 21 48 3 46 3 47 45 56 40 8 42 10 48 57 6 39 11 49
26 49 16 0 19 8 19 54 l0 55 43 3 42 3 3 47 c3 39 7 47 28 52 21 6 24 12 24
56 0 43 3 50 20 50 18 0 20 7 20 55 0 52 1 55 25 55 36 0 65 33 65 75 0 28 4
35 19 35 22 0 31 19 31 65 0 24 5 34 19 38 14 3 21 17 26 55 5 38 11 51 26 55
15 4 19 14 19 51 0 25 4 46 9 46 21 0 41 34 41 70 0 29 4 39 20 43 17 4 20 14
20 56 0 39 4 51 15 51 18 0 35 39 35 82 0 17 7 36 17 43 13 10 18 33 21 104 4
88 5 91 28 91 22 0 24 4 24 49 0 40 4 51 19 56 15 4 19 20 25 85 6 79 21 130
38 130 4 0 8 24 8 54 0 44 3 55 18 58 15 4 20 19 25 74 4 38 7 84 7 103 0 19
8 43 18 54 15 17 17 46 20 221 3 141 7 205 16 216 26 31 36 124 36 338 0 214
-11 307 -39 335 -7 7 -11 75 -11 179 0 161 -1 168 -20 168 -19 0 -20 7 -20 99
0 67 -4 104 -13 113 -25 27 -37 71 -37 139 0 62 -2 71 -20 76 -13 3 -20 14
-20 28 0 49 -13 85 -30 85 -14 0 -18 13 -23 83 -6 92 -13 117 -33 117 -10 0
-14 13 -14 45 0 36 -4 47 -25 61 -14 9 -25 26 -25 39 0 29 -36 75 -60 75 -16
0 -19 9 -22 53 -3 45 -6 52 -25 55 -20 3 -23 9 -23 52 0 52 -8 60 -61 60 -28
0 -29 1 -29 50 0 47 -2 50 -25 50 -23 0 -25 3 -25 49 0 53 -8 61 -60 61 -27 0
-29 3 -32 48 -3 47 -3 47 -45 56 -38 9 -43 13 -43 39 0 54 -15 67 -75 67 -51
0 -55 2 -55 24 0 13 -3 38 -6 55 -6 30 -8 31 -58 31 -50 0 -52 1 -64 33 -7 18
-12 40 -12 49 0 21 -21 28 -86 28 l-54 0 0 34 c0 57 -18 66 -131 66 l-99 0 0
49 c0 35 -4 51 -16 55 -9 3 -89 6 -179 6 l-164 0 -3 47 c-3 41 -6 48 -28 54
-26 7 -556 9 -625 2z"/>
<path d="M12572 26568 c-7 -7 -12 -29 -12 -50 l0 -38 -105 0 c-100 0 -105 -1
-129 -26 -13 -15 -27 -40 -30 -55 -4 -23 -11 -29 -31 -29 l-25 0 0 -265 c0
-256 1 -265 19 -265 17 0 20 -8 23 -52 l3 -53 43 -3 c40 -3 42 -4 42 -37 0
-70 -43 -65 531 -65 l519 0 0 -55 c0 -42 -6 -63 -22 -85 -21 -28 -22 -41 -26
-322 -4 -253 -7 -296 -21 -312 -14 -16 -16 -57 -19 -320 -3 -266 -5 -302 -19
-314 -25 -18 -31 -95 -32 -373 -1 -238 -2 -247 -21 -252 -19 -5 -20 -14 -20
-236 0 -230 -4 -265 -37 -299 -10 -10 -13 -67 -13 -218 0 -197 -1 -204 -20
-204 -19 0 -20 -7 -20 -160 0 -150 -1 -160 -19 -160 -28 0 -31 -18 -31 -176 0
-137 -1 -144 -20 -144 -19 0 -20 -7 -20 -104 0 -101 -1 -105 -22 -108 -21 -3
-23 -9 -26 -68 -2 -35 -7 -69 -12 -75 -16 -19 -40 -100 -40 -137 l0 -37 -62
-3 -63 -3 -3 -52 -3 -52 -42 -3 -42 -3 -3 -51 c-2 -40 -7 -53 -21 -57 -11 -2
-21 -18 -24 -37 -9 -41 -9 -637 -1 -667 3 -12 15 -25 25 -28 15 -5 19 -16 19
-56 0 -44 2 -49 23 -49 65 -1 67 -14 67 -520 0 -434 -1 -450 -19 -450 -11 0
-21 -9 -25 -22 -3 -13 -6 -157 -6 -320 0 -291 0 -298 -20 -298 -19 0 -20 -7
-20 -265 0 -226 -2 -265 -15 -265 -30 0 -35 -39 -35 -289 0 -208 -2 -251 -14
-251 -8 0 -17 -7 -20 -16 -3 -9 -6 -151 -6 -316 0 -287 -1 -300 -19 -305 -11
-3 -22 -15 -25 -26 -9 -35 -6 -1547 3 -1596 5 -25 16 -50 25 -57 13 -9 16 -31
16 -114 0 -93 2 -102 20 -107 15 -4 20 -15 22 -57 3 -44 6 -51 26 -54 19 -3
22 -9 22 -54 0 -40 4 -51 19 -55 14 -3 20 -17 25 -53 6 -47 7 -48 46 -55 35
-6 40 -10 40 -33 0 -61 9 -72 56 -72 43 0 44 -1 44 -33 0 -52 20 -70 81 -77
l54 -5 5 -40 c9 -69 -24 -66 933 -63 827 3 849 4 863 22 8 11 14 35 14 53 l0
33 199 0 c185 0 200 1 225 21 19 15 26 30 26 54 l0 34 138 3 137 3 3 46 3 47
99 4 c55 2 105 9 111 15 6 6 13 29 16 51 5 40 7 41 47 44 l41 3 3 53 3 52 45
0 44 0 0 49 c0 44 3 49 25 55 22 6 25 11 25 56 0 43 3 50 20 50 18 0 20 7 20
55 0 52 1 55 25 55 24 0 25 3 25 54 0 45 3 54 20 59 19 5 20 14 20 125 0 116
12 169 41 187 5 4 9 85 9 185 0 174 7 223 35 242 12 9 14 394 2 451 -10 47
-42 77 -83 77 -36 0 -44 -13 -44 -70 0 -39 0 -39 -42 -42 l-43 -3 -3 -47 c-3
-42 -6 -48 -25 -48 -57 0 -67 -10 -67 -61 l0 -48 -42 -3 -43 -3 -3 -52 -3 -53
-45 0 -44 0 0 -50 0 -50 -44 0 c-48 0 -56 -11 -56 -77 l0 -32 -62 -3 -63 -3
-3 -47 c-3 -51 -5 -52 -97 -60 -27 -3 -31 -7 -39 -50 l-9 -47 -61 -3 -61 -3
-9 -52 -10 -53 -88 0 c-110 0 -128 -8 -128 -59 l0 -38 -152 -6 c-104 -5 -154
-11 -160 -20 -4 -6 -8 -29 -8 -49 l0 -38 -685 0 -685 0 0 31 c0 57 -12 66
-100 74 -78 7 -80 8 -80 34 0 58 -10 71 -51 71 -39 0 -39 0 -39 39 0 51 -8 71
-30 71 -15 0 -18 13 -23 86 -4 63 -10 90 -23 106 -18 18 -19 45 -22 327 -2
168 0 433 3 588 7 264 8 282 26 286 18 5 19 19 19 266 0 248 1 261 19 261 25
0 31 50 31 270 0 149 3 182 18 211 14 29 17 68 20 257 3 187 5 222 18 222 27
0 34 50 34 246 0 116 4 194 10 194 21 0 30 86 30 298 0 211 1 222 19 222 10 0
22 7 25 16 3 9 6 103 6 211 0 180 2 197 20 220 16 21 20 41 20 103 l0 77 558
6 c618 8 582 3 582 74 l0 32 445 3 c494 3 465 -1 465 71 l0 37 134 0 c148 0
146 -1 146 66 0 30 3 34 28 34 15 0 44 3 65 6 37 7 37 7 37 55 0 42 3 48 23
51 l22 3 0 302 c0 232 -3 305 -13 315 -7 7 -44 14 -86 16 l-73 4 -9 47 -9 46
-124 9 c-67 4 -211 5 -317 1 -215 -8 -224 -11 -224 -71 l0 -34 -743 0 -743 0
-12 33 c-7 19 -12 86 -12 159 0 114 2 126 18 130 23 6 32 66 32 216 0 89 3
105 20 122 18 18 20 33 20 189 0 103 4 172 10 176 6 3 10 14 10 25 0 10 7 20
15 24 12 4 15 32 15 160 0 145 1 154 20 159 19 5 20 14 20 161 0 133 2 156 15
156 26 0 35 46 35 186 0 111 3 139 18 161 14 23 18 56 20 209 4 179 4 183 25
186 21 3 22 7 25 160 2 142 4 157 21 163 17 5 19 22 26 168 4 89 12 165 17
168 18 12 27 92 28 252 0 147 1 157 19 157 25 0 31 35 31 191 0 104 3 129 14
129 17 0 26 22 26 65 0 31 2 33 45 39 50 8 85 42 85 82 l0 24 940 0 940 0 0
-49 c0 -57 6 -61 112 -61 l67 0 3 -47 3 -48 42 -3 42 -3 3 -52 3 -52 110 0
110 0 3 53 c3 44 6 52 23 52 16 0 19 7 19 55 0 43 3 55 15 55 9 0 20 12 25 26
6 15 10 203 10 463 0 453 -1 461 -41 461 -11 0 -19 11 -23 33 -3 19 -15 43
-27 55 -17 19 -30 22 -104 22 l-84 0 -3 48 -3 47 -1870 3 c-1447 1 -1874 -1
-1883 -10z"/>
<path d="M9702 9421 c-9 -5 -15 -41 -19 -106 -5 -84 -9 -98 -25 -103 -16 -4
-18 -16 -18 -107 0 -93 -2 -104 -19 -110 -25 -8 -31 -49 -31 -225 0 -127 -3
-149 -20 -178 -18 -29 -20 -50 -20 -187 0 -141 -2 -154 -19 -160 -25 -8 -31
-59 -31 -263 0 -144 -2 -168 -17 -185 -16 -17 -18 -47 -21 -263 -3 -206 -6
-244 -18 -244 -28 0 -34 -53 -34 -292 0 -201 -3 -244 -15 -258 -24 -26 -34
-146 -35 -391 0 -218 -1 -227 -20 -232 -19 -5 -20 -14 -20 -225 0 -122 -4
-223 -9 -226 -21 -13 -41 -109 -41 -193 0 -77 -2 -90 -20 -101 -18 -11 -20
-23 -20 -106 0 -90 -1 -95 -22 -98 -20 -3 -23 -10 -26 -55 l-3 -52 -87 -3 -87
-3 -3 -157 -3 -158 26 0 c23 0 25 -3 25 -50 0 -43 3 -50 19 -50 17 0 20 -8 23
-52 3 -46 6 -53 26 -56 22 -3 22 -5 22 -159 0 -146 1 -155 20 -160 20 -5 20
-14 20 -390 0 -349 -2 -386 -17 -410 -15 -23 -19 -56 -21 -199 l-4 -172 -24
-6 c-22 -6 -24 -12 -24 -61 0 -40 -4 -55 -14 -55 -17 0 -26 -22 -26 -66 l0
-34 -69 0 -70 0 -3 53 c-3 50 -4 52 -34 55 -32 3 -54 32 -54 72 0 27 -30 40
-89 40 l-51 0 -6 41 c-5 31 -13 43 -31 50 -13 5 -127 9 -253 9 l-229 0 -15 33
c-8 17 -16 41 -18 52 -2 16 -12 21 -46 23 l-42 3 0 55 c0 46 3 54 19 54 20 0
31 25 31 72 0 18 7 29 20 33 16 5 20 15 20 56 0 49 0 49 33 49 44 0 57 15 57
67 0 38 3 43 23 43 34 1 57 24 64 64 4 28 10 36 27 36 40 0 66 28 66 69 0 37
1 39 40 45 41 6 45 13 52 76 2 16 10 26 23 28 61 9 64 11 71 57 4 28 11 45 20
45 39 0 63 23 70 66 5 34 10 44 25 44 11 0 21 6 23 13 2 6 9 31 15 55 10 37
15 42 40 42 30 0 41 18 41 71 0 18 6 28 20 32 19 5 20 14 20 161 l0 156 -78 0
c-47 0 -83 -5 -90 -12 -7 -7 -12 -31 -12 -55 l0 -42 -62 -3 -63 -3 -3 -47 c-3
-47 -4 -48 -35 -48 -47 0 -59 -12 -64 -64 -6 -46 -6 -46 -43 -46 -42 0 -50
-11 -50 -65 0 -36 -12 -45 -61 -45 -28 0 -29 -1 -29 -50 l0 -50 -39 0 c-22 0
-51 -4 -65 -10 -23 -8 -26 -15 -26 -55 l0 -45 -70 0 -70 0 0 110 c0 93 2 110
18 119 16 9 17 52 22 613 5 601 5 603 28 646 22 42 22 48 22 408 0 330 2 367
18 391 15 24 17 66 20 420 3 330 5 393 17 393 32 0 35 39 35 494 0 446 0 456
20 466 20 11 20 19 18 478 l-3 467 -62 3 c-61 3 -63 2 -63 -22 0 -30 -20 -78
-37 -89 -10 -6 -13 -48 -13 -161 0 -145 -1 -154 -20 -159 -19 -5 -20 -14 -20
-266 0 -227 -2 -261 -15 -261 -30 0 -35 -52 -35 -351 0 -249 -2 -299 -14 -299
-8 0 -17 -7 -20 -16 -3 -9 -6 -175 -6 -369 0 -337 -1 -354 -19 -360 -11 -3
-21 -19 -25 -37 -3 -17 -6 -205 -6 -419 0 -369 -1 -388 -19 -394 -17 -5 -19
-30 -26 -477 -7 -448 -8 -473 -26 -486 -18 -13 -19 -34 -19 -536 0 -500 -1
-524 -18 -528 -28 -8 -32 -112 -32 -792 0 -547 -1 -591 -17 -609 -17 -18 -18
-74 -18 -877 0 -803 1 -859 18 -877 14 -16 17 -38 17 -115 0 -122 2 -128 51
-128 l39 0 0 75 c0 61 5 82 25 119 l25 45 0 359 c0 357 0 360 22 374 20 14 21
22 26 267 4 230 7 256 23 272 17 17 19 36 19 158 0 128 2 140 19 146 23 7 31
44 31 136 0 55 3 69 15 69 9 0 17 6 19 12 29 102 25 98 78 98 65 0 96 21 104
71 l7 39 91 0 92 0 10 -42 c12 -58 35 -68 161 -68 l102 0 3 -47 3 -48 49 -10
c44 -10 51 -14 58 -43 5 -18 13 -32 18 -32 6 0 10 -7 10 -15 0 -8 8 -15 19
-15 15 0 20 -10 25 -49 5 -37 11 -51 26 -56 15 -5 20 -15 20 -41 0 -24 8 -42
25 -58 19 -18 25 -33 25 -66 0 -33 4 -43 20 -47 18 -5 20 -14 20 -73 0 -90 9
-128 30 -135 16 -5 18 -23 22 -183 2 -149 6 -182 21 -205 14 -22 17 -51 17
-197 0 -109 4 -170 10 -170 6 0 15 -12 21 -27 10 -27 11 -27 25 -9 8 11 14 22
14 26 0 3 13 10 28 16 25 10 30 18 35 65 4 30 7 122 7 205 0 143 1 152 20 157
19 5 20 14 20 265 0 246 1 261 19 267 11 3 21 19 25 37 3 17 6 158 6 313 0
274 1 283 20 288 19 5 20 14 20 281 0 158 4 276 9 276 5 0 16 21 25 47 13 38
16 95 16 306 0 247 1 260 20 275 19 16 20 33 27 322 5 261 9 307 22 317 13 9
16 39 19 157 l4 146 77 0 c88 0 101 8 101 61 l0 37 88 7 c48 3 98 7 112 8 22
2 25 7 28 49 l3 47 42 3 42 3 3 103 3 102 -164 0 -164 0 -6 30 c-12 56 -35 80
-78 80 l-39 0 0 375 c0 346 1 375 18 384 15 9 17 34 20 265 3 241 4 256 21
256 27 0 31 25 31 238 0 157 3 192 14 192 23 0 26 24 26 231 0 192 1 201 23
230 21 29 22 41 25 262 4 214 5 232 23 245 18 12 19 30 19 323 0 310 0 311 23
329 22 18 22 19 22 327 0 169 -3 320 -8 335 -11 41 -73 70 -105 49z"/>
<path d="M17974 9403 c-12 -16 -24 -40 -28 -55 -5 -21 -13 -28 -30 -28 -20 0
-30 -11 -51 -55 -18 -39 -31 -55 -45 -55 -17 0 -20 -7 -20 -49 0 -44 -3 -50
-22 -53 -20 -3 -23 -10 -26 -55 -3 -45 -6 -52 -25 -55 -19 -3 -22 -10 -25 -50
-2 -36 -8 -48 -23 -53 -15 -5 -19 -16 -19 -55 0 -43 -3 -49 -22 -52 -20 -3
-23 -10 -26 -54 -2 -42 -7 -53 -22 -57 -17 -4 -20 -14 -20 -56 0 -39 -4 -51
-15 -51 -24 0 -35 -43 -35 -131 0 -72 -2 -79 -20 -79 -17 0 -20 -7 -20 -48 0
-42 -3 -50 -25 -60 -22 -10 -25 -18 -25 -66 0 -30 -6 -67 -14 -83 -21 -43 -36
-96 -36 -131 0 -21 -7 -35 -20 -42 -18 -10 -20 -21 -20 -110 0 -95 -1 -99 -22
-102 -20 -3 -24 -10 -29 -68 -4 -36 -13 -83 -22 -105 -9 -22 -16 -62 -17 -88
0 -37 -5 -53 -20 -65 -18 -14 -22 -33 -27 -112 -5 -70 -10 -98 -22 -107 -13
-9 -17 -35 -19 -125 -3 -109 -19 -178 -42 -178 -6 0 -10 -45 -10 -104 0 -96
-2 -105 -20 -111 -19 -6 -20 -15 -20 -166 0 -136 -2 -159 -15 -159 -30 0 -35
-50 -33 -284 l3 -231 65 -3 65 -3 19 43 c11 24 21 73 24 110 3 52 8 67 22 71
19 5 30 83 30 223 0 73 2 82 20 87 19 5 20 14 20 118 0 79 4 117 13 128 24 28
37 96 37 191 0 83 2 92 20 97 18 5 20 14 20 108 0 100 1 104 23 107 21 3 22 8
25 104 2 92 5 102 22 107 16 4 20 14 20 45 0 21 3 66 6 100 5 47 11 61 25 65
17 4 19 15 19 85 0 68 4 84 25 116 16 24 25 51 25 76 0 29 5 42 20 50 18 10
20 21 20 110 0 95 1 99 23 102 19 3 22 10 25 50 2 36 8 48 23 53 16 5 19 16
19 65 0 40 4 59 14 63 16 6 36 88 36 147 0 33 3 40 20 40 18 0 20 7 20 54 0
49 2 55 23 58 19 3 22 10 25 56 3 44 6 52 23 52 16 0 19 7 19 49 0 44 3 50 23
53 19 3 22 10 25 56 l3 52 45 0 44 0 0 -40 c0 -56 19 -137 36 -151 10 -9 14
-38 14 -120 0 -99 2 -108 20 -114 18 -6 20 -15 20 -95 0 -112 3 -120 47 -120
53 0 80 34 88 112 4 35 5 231 3 437 l-3 374 -22 15 c-19 12 -23 24 -23 68 0
47 -2 54 -20 54 -16 0 -20 7 -20 36 0 65 -11 74 -93 74 -68 0 -75 -2 -93 -27z"/>
<path d="M20576 8433 c-3 -21 -6 -69 -6 -106 0 -60 -2 -70 -20 -74 -20 -5 -20
-14 -20 -484 0 -443 -1 -479 -17 -488 -28 -15 -31 -115 -32 -1062 -1 -867 -4
-949 -32 -949 -5 0 -9 -21 -9 -48 0 -39 -4 -49 -22 -57 -19 -8 -24 -19 -26
-57 l-3 -48 -69 0 -69 0 -3 48 c-3 47 -3 47 -45 56 l-43 9 0 48 c0 42 -3 49
-20 49 -19 0 -20 7 -20 100 0 112 -5 120 -77 120 -51 0 -63 -14 -63 -72 0 -34
-4 -48 -14 -48 -21 0 -26 -23 -26 -120 0 -72 -3 -91 -16 -98 -18 -10 -32 -77
-33 -154 -1 -34 -7 -54 -21 -68 -17 -17 -20 -33 -20 -105 0 -84 0 -85 -25 -85
-24 0 -25 -3 -25 -54 0 -48 -2 -55 -22 -58 -16 -2 -24 -14 -32 -48 -10 -42
-13 -45 -48 -48 -37 -3 -37 -3 -40 40 -2 33 -8 45 -25 53 -17 7 -23 18 -23 42
0 20 -8 41 -20 53 -14 14 -20 33 -20 67 0 30 -6 53 -17 66 -17 17 -18 61 -23
524 -6 582 4 533 -110 533 -73 0 -110 -18 -110 -53 0 -26 -8 -38 -35 -53 -15
-8 -21 -23 -23 -58 -3 -38 -7 -46 -23 -46 -16 0 -19 -7 -19 -55 0 -52 -1 -55
-25 -55 -23 0 -25 -3 -25 -49 0 -41 -4 -51 -20 -56 -17 -6 -20 -15 -20 -74 0
-68 -21 -141 -40 -141 -6 0 -10 -42 -10 -104 0 -95 -2 -104 -20 -109 -17 -4
-20 -14 -21 -59 -2 -139 -18 -296 -32 -333 -13 -33 -16 -89 -17 -337 0 -163 3
-303 6 -312 3 -9 12 -16 19 -16 13 0 25 -42 25 -86 0 -23 2 -24 84 -24 93 0
96 2 96 71 0 32 3 39 20 39 20 0 20 7 20 434 0 367 2 435 14 439 8 3 19 25 24
49 8 33 10 -8 11 -170 1 -205 2 -214 21 -219 16 -4 20 -14 20 -43 0 -51 8 -70
31 -70 16 0 19 -8 19 -50 0 -46 2 -50 24 -50 23 0 25 -4 28 -52 l3 -53 42 -3
42 -3 3 -46 c3 -44 5 -47 38 -56 49 -12 236 -5 251 10 7 7 16 32 20 55 l6 43
2 -42 c1 -31 7 -46 21 -55 14 -9 20 -24 20 -50 0 -49 8 -68 31 -68 18 0 19
-12 21 -212 l3 -213 33 -3 c27 -3 34 1 42 23 6 14 10 40 10 56 0 22 5 29 20
29 19 0 20 7 20 104 0 101 1 105 23 108 21 3 22 8 25 105 2 91 5 103 22 108
18 6 20 16 20 111 l0 104 25 0 c23 0 25 3 25 49 0 41 4 51 20 56 16 5 20 15
20 56 0 46 2 49 25 49 22 0 25 -4 25 -37 0 -43 7 -57 33 -66 15 -6 17 -23 17
-158 0 -142 1 -151 20 -156 20 -5 20 -14 20 -517 0 -281 3 -521 6 -533 4 -14
14 -23 25 -23 18 0 19 -10 19 -160 0 -149 1 -160 19 -160 16 0 19 -12 25 -96
4 -53 9 -101 12 -105 3 -5 29 -9 59 -9 64 0 65 2 65 120 0 79 2 88 20 93 20 5
20 14 20 431 0 383 2 426 16 434 10 5 20 30 25 58 4 27 8 768 8 1647 1 1367 3
1601 15 1620 22 34 36 163 36 338 0 129 3 159 14 159 21 0 26 23 26 120 l0 89
43 3 42 3 3 47 c3 50 4 51 67 60 19 3 20 12 23 151 2 141 2 149 -17 154 -16 4
-21 15 -23 57 -3 44 -6 51 -25 54 -20 3 -23 9 -23 54 0 41 -3 51 -20 55 -14 4
-20 14 -20 32 0 58 -10 71 -50 71 -37 0 -37 0 -46 53 l-9 52 -81 3 -81 3 -7
-38z"/>
<path d="M24148 8459 c-13 -7 -18 -23 -18 -53 0 -33 -5 -47 -21 -57 -19 -13
-21 -27 -26 -161 -5 -132 -8 -147 -24 -151 -18 -5 -19 -23 -19 -375 0 -351 -1
-370 -18 -375 -12 -2 -22 -17 -25 -37 -4 -18 -7 -398 -7 -845 0 -804 0 -813
-20 -818 -19 -5 -20 -14 -20 -212 0 -201 -1 -207 -22 -224 -20 -17 -22 -29
-26 -165 -3 -109 -8 -146 -17 -146 -20 0 -25 -25 -25 -117 0 -75 -2 -87 -22
-102 -19 -16 -22 -31 -26 -110 -4 -79 -7 -91 -22 -91 -22 0 -30 -19 -30 -71
l0 -39 -45 0 -45 0 0 51 c0 42 -3 52 -20 56 -19 5 -20 14 -20 302 0 163 -3
306 -6 319 -4 13 -14 22 -25 22 -16 0 -19 10 -21 103 l-3 102 -119 3 c-78 2
-123 -1 -132 -9 -8 -6 -14 -29 -14 -50 0 -25 -5 -39 -13 -39 -13 0 -37 53 -37
83 0 15 -13 17 -98 17 -111 0 -122 -6 -122 -61 0 -31 -4 -38 -25 -43 -22 -6
-25 -11 -25 -56 0 -42 -3 -50 -19 -50 -23 0 -31 -19 -31 -71 0 -32 -3 -39 -20
-39 -17 0 -20 -7 -20 -49 0 -44 -3 -50 -22 -53 -20 -3 -23 -10 -26 -55 -3 -45
-6 -53 -23 -53 -16 0 -19 -7 -19 -55 0 -52 -1 -55 -25 -55 -23 0 -25 -3 -25
-49 0 -40 -3 -50 -20 -54 -17 -4 -20 -14 -20 -55 0 -45 -3 -51 -22 -54 -20 -3
-23 -10 -26 -55 -3 -45 -6 -53 -23 -53 -18 0 -19 -8 -19 -99 0 -81 3 -100 16
-105 9 -3 86 -6 172 -6 188 0 206 6 210 68 l3 42 50 0 c60 0 89 24 89 74 0 28
4 35 22 38 14 2 24 11 26 23 7 43 25 75 42 75 30 0 50 28 50 70 0 29 4 39 20
43 17 4 20 14 20 56 0 44 3 51 19 51 11 0 22 6 24 13 3 6 6 -34 6 -90 1 -110
6 -133 27 -133 11 0 14 -17 14 -68 0 -38 3 -111 7 -162 5 -78 9 -93 25 -98 14
-3 18 -14 18 -53 0 -46 2 -49 25 -49 24 0 25 -3 25 -55 l0 -55 136 0 c74 0
144 5 155 10 14 8 19 21 19 55 0 41 2 45 25 45 23 0 25 3 25 50 0 47 2 50 25
50 22 0 25 -4 25 -35 0 -22 8 -43 20 -55 19 -19 20 -33 20 -211 0 -189 10
-269 36 -300 11 -12 14 -73 14 -286 0 -238 2 -272 16 -277 48 -19 74 5 74 68
0 23 7 43 20 56 20 20 20 33 20 1344 0 1124 2 1325 14 1335 31 26 36 134 36
743 0 597 0 606 20 611 19 5 20 14 20 210 0 206 0 206 23 209 19 3 22 10 25
55 l3 52 42 3 42 3 3 47 c3 46 4 48 42 58 50 13 54 28 48 166 -4 78 -9 108
-21 122 -10 10 -17 34 -17 53 0 53 -10 79 -31 79 -16 0 -19 8 -19 50 0 28 -4
50 -9 50 -22 0 -41 34 -41 71 0 35 -3 39 -25 39 -22 0 -25 4 -25 35 0 49 -31
75 -89 75 -25 0 -54 -5 -63 -11z"/>
<path d="M21253 8345 c-12 -9 -25 -31 -29 -50 -6 -32 -9 -35 -39 -35 -63 0
-65 -3 -65 -104 0 -91 21 -186 41 -186 5 0 9 -7 9 -15 0 -13 24 -15 154 -15
l153 0 5 108 c2 59 2 131 0 160 -4 47 -6 52 -28 52 -21 0 -24 5 -24 34 0 25
-7 39 -22 50 -30 21 -126 21 -155 1z"/>
<path d="M24653 8250 c-22 -9 -23 -15 -22 -97 0 -118 12 -180 35 -198 15 -12
56 -14 214 -12 l195 2 3 149 c2 113 -1 151 -10 158 -18 11 -387 9 -415 -2z"/>
<path d="M17987 8033 c-4 -3 -7 -75 -7 -158 0 -147 -1 -153 -22 -167 -23 -15
-23 -19 -26 -264 -4 -229 -5 -250 -23 -267 -18 -17 -19 -36 -19 -324 0 -298
-1 -308 -22 -352 -22 -44 -23 -59 -26 -317 -3 -252 -4 -272 -21 -277 -15 -3
-19 -19 -24 -88 -4 -46 -7 -116 -7 -155 0 -63 -2 -72 -20 -77 -18 -5 -20 -14
-20 -105 0 -97 -1 -101 -22 -104 -20 -3 -23 -10 -26 -55 -2 -43 -6 -53 -21
-53 -24 0 -49 -30 -57 -67 -4 -22 -13 -33 -30 -37 -21 -6 -24 -12 -24 -56 l0
-50 -45 0 -45 0 0 -55 0 -55 -43 0 c-55 0 -85 -21 -89 -63 -3 -28 -7 -32 -38
-37 -53 -9 -60 -17 -60 -66 l0 -44 -45 0 -45 0 0 -54 0 -54 -70 -4 -70 -3 0
165 c0 153 1 167 20 183 19 16 20 29 20 202 0 178 -1 185 -21 196 -26 13 -89
5 -101 -13 -4 -7 -8 -53 -8 -101 0 -78 -3 -91 -21 -106 -19 -15 -21 -30 -26
-159 -5 -126 -8 -142 -24 -147 -17 -6 -19 -18 -19 -111 0 -95 -2 -104 -19
-104 -26 0 -31 -18 -31 -121 0 -82 -1 -89 -20 -89 -18 0 -20 -7 -20 -55 0 -41
-6 -63 -21 -84 -14 -20 -22 -49 -26 -104 -5 -62 -9 -76 -24 -80 -16 -4 -19
-15 -19 -63 0 -34 -6 -64 -14 -73 -21 -25 -36 -80 -36 -132 0 -41 -3 -49 -19
-49 -19 0 -31 -34 -31 -85 0 -14 -7 -25 -20 -28 -17 -4 -20 -14 -20 -56 0 -37
-4 -51 -14 -51 -17 0 -26 -22 -26 -61 0 -17 -10 -51 -22 -77 -12 -26 -24 -75
-26 -109 -4 -54 -7 -62 -26 -65 -18 -3 -21 -11 -24 -55 -3 -45 -6 -53 -23 -53
-16 0 -19 -7 -19 -48 0 -42 -3 -50 -25 -60 -22 -10 -25 -18 -25 -61 0 -40 -3
-50 -20 -54 -18 -5 -20 -14 -20 -100 0 -93 -1 -95 -25 -101 -23 -6 -25 -11
-25 -59 0 -40 -4 -55 -19 -64 -16 -10 -20 -29 -26 -107 -5 -67 -11 -96 -20
-96 -21 0 -25 -26 -25 -175 0 -130 -2 -143 -18 -147 -13 -4 -21 -18 -25 -44
-9 -50 -9 -437 -1 -458 3 -9 14 -16 24 -16 16 0 18 -12 22 -95 2 -59 8 -99 16
-107 14 -14 200 -24 257 -14 31 6 34 10 40 56 6 44 10 50 30 50 44 0 54 10 61
61 5 39 10 49 25 49 16 0 19 8 19 49 0 44 3 50 23 53 19 3 22 10 25 56 3 44 6
52 23 52 16 0 19 7 19 55 0 42 4 55 15 55 25 0 35 35 35 120 0 70 3 84 21 98
18 15 21 32 26 178 3 88 3 177 -1 197 l-7 37 -84 0 -85 0 0 -39 c0 -37 -19
-71 -41 -71 -5 0 -9 -22 -9 -50 0 -38 -4 -50 -15 -50 -18 0 -35 -39 -35 -81 0
-18 -5 -29 -14 -29 -18 0 -26 -22 -26 -68 0 -26 -6 -41 -20 -50 -14 -9 -20
-23 -20 -50 0 -29 -5 -39 -22 -47 -19 -8 -24 -19 -26 -58 -2 -35 -7 -47 -19
-47 -12 0 -13 3 -5 13 6 7 14 80 18 163 6 119 10 151 23 161 12 9 17 34 19
106 3 81 7 96 21 100 22 5 31 47 31 137 0 59 2 68 20 73 17 4 20 14 20 55 0
41 4 52 19 57 23 7 31 44 31 136 0 62 2 69 20 69 18 0 20 7 20 55 l0 55 50 0
50 0 0 -55 c0 -30 4 -55 8 -55 15 0 32 -67 32 -127 0 -75 11 -85 82 -81 l53 3
5 190 c4 159 8 195 23 218 13 21 17 48 17 126 0 96 1 100 23 103 19 3 22 10
25 57 2 36 9 59 19 67 13 9 18 34 21 103 4 88 5 91 28 91 22 0 24 4 24 49 0
40 3 50 20 54 17 4 20 14 20 56 0 48 2 51 25 51 24 0 25 3 25 54 0 49 2 55 22
58 18 2 24 12 31 46 7 37 14 46 43 58 24 10 34 21 34 37 0 40 11 65 31 70 16
4 19 14 19 56 l0 51 33 0 c43 0 57 15 57 61 0 34 3 37 35 43 39 8 55 30 55 74
0 29 2 30 53 34 28 2 66 2 83 0 50 -6 54 -34 54 -341 0 -252 1 -275 20 -311
27 -54 29 -217 3 -257 -17 -25 -18 -98 -21 -1106 l-3 -1079 -22 -18 -22 -18
-3 -502 c-3 -431 -1 -504 11 -518 8 -10 22 -37 30 -62 13 -39 19 -45 46 -48
44 -5 51 22 51 185 0 116 3 139 18 156 15 17 17 50 20 317 l3 299 22 3 22 3 3
378 c2 337 4 381 19 404 24 36 31 301 32 1181 1 652 2 705 19 729 15 24 17 61
20 315 3 276 4 288 23 288 14 0 19 8 20 28 2 25 2 25 6 3 3 -13 13 -25 23 -28
17 -5 18 -29 22 -453 3 -447 3 -448 26 -479 l22 -30 0 -746 0 -745 68 0 c99 0
106 8 110 119 4 79 6 91 22 91 14 0 18 11 23 56 3 31 13 64 22 75 12 12 19 43
22 103 5 68 9 85 23 89 21 5 30 47 30 137 0 59 2 68 20 73 17 4 20 14 20 55 0
41 4 52 19 57 22 7 31 44 31 135 0 59 2 68 20 73 17 4 20 14 20 54 0 40 4 50
23 58 19 8 22 19 25 69 2 32 10 69 19 82 9 14 18 56 21 94 4 61 7 69 26 72 18
3 21 11 24 52 2 36 9 54 23 64 12 8 19 25 19 46 0 18 3 61 6 95 6 50 10 61 25
61 16 0 19 8 19 54 0 44 3 55 18 58 21 6 32 60 32 154 0 47 2 54 20 54 19 0
20 7 20 110 0 102 1 110 19 110 16 0 21 10 27 57 4 31 4 95 1 142 -5 69 -10
88 -26 101 -14 11 -21 29 -23 65 l-3 50 -42 3 c-40 3 -43 5 -43 33 0 55 -15
69 -73 69 -68 0 -97 -19 -97 -66 0 -30 -3 -34 -27 -34 -63 0 -73 -9 -73 -60 0
-43 -3 -49 -22 -52 -20 -3 -23 -10 -26 -55 -3 -45 -6 -53 -23 -53 -16 0 -19
-7 -19 -51 0 -42 -3 -52 -19 -56 -26 -7 -31 -30 -31 -156 0 -84 -4 -115 -17
-140 -18 -32 -18 -30 -21 140 -2 152 0 176 15 200 16 24 19 68 24 453 5 363 8
433 23 480 20 64 17 142 -7 168 -10 11 -17 40 -19 77 l-3 60 -53 3 c-64 4 -77
-6 -86 -59 -5 -34 -12 -42 -41 -55 -32 -13 -35 -17 -35 -58 0 -39 -3 -45 -22
-48 -20 -3 -23 -10 -26 -50 -2 -27 -7 -48 -12 -48 -4 0 -15 -3 -24 -6 -14 -5
-16 13 -16 159 0 153 1 166 19 172 27 8 31 63 31 477 0 357 1 368 20 378 20
11 20 21 20 690 l0 680 -58 0 c-32 0 -62 -3 -65 -7z"/>
<path d="M15453 7930 c-19 -8 -23 -17 -23 -55 0 -44 -1 -45 -33 -45 -44 0 -57
-15 -57 -67 0 -39 -2 -43 -25 -43 -23 0 -25 -3 -25 -49 0 -44 -3 -50 -22 -53
-20 -3 -23 -10 -26 -55 -3 -45 -6 -53 -23 -53 -16 0 -19 -7 -19 -55 0 -52 -1
-55 -25 -55 -23 0 -25 -3 -25 -50 0 -43 -3 -50 -20 -50 -18 0 -20 -7 -20 -54
0 -49 -2 -55 -22 -58 -20 -3 -23 -10 -26 -54 -2 -42 -7 -53 -22 -57 -16 -4
-20 -14 -20 -51 0 -31 -7 -56 -20 -74 -15 -20 -22 -50 -27 -110 -5 -69 -9 -82
-23 -82 -21 0 -30 -20 -30 -66 0 -21 -8 -42 -20 -54 -17 -17 -20 -33 -20 -103
0 -80 -1 -84 -25 -95 -21 -10 -25 -18 -25 -58 0 -33 -5 -51 -17 -60 -15 -10
-19 -31 -21 -108 -4 -88 -5 -95 -25 -98 -21 -3 -22 -9 -25 -105 -2 -95 -4
-103 -22 -103 -18 0 -20 -7 -20 -62 0 -37 -5 -68 -14 -77 -21 -25 -36 -80 -36
-132 0 -35 -6 -55 -19 -68 -15 -15 -20 -40 -25 -132 -7 -111 -20 -169 -37
-169 -5 0 -9 -87 -9 -194 0 -164 3 -197 16 -210 33 -34 65 -13 71 48 4 35 10
46 23 46 19 0 30 27 30 71 0 18 6 28 20 32 17 4 20 14 20 55 0 40 4 51 18 54
21 6 32 60 32 154 0 47 2 54 20 54 18 0 20 7 20 55 0 47 3 55 19 55 23 0 31
19 31 71 0 22 7 51 16 64 9 15 18 56 21 104 5 71 8 80 27 83 52 9 63 0 70 -55
3 -29 6 -69 6 -89 0 -46 8 -68 26 -68 9 0 14 -17 16 -52 3 -46 6 -53 26 -56
21 -3 22 -8 22 -97 0 -82 3 -96 19 -107 14 -10 21 -28 23 -64 3 -42 6 -49 26
-52 21 -3 22 -7 22 -108 0 -97 1 -104 20 -104 19 0 20 -7 20 -96 0 -91 20
-186 41 -200 5 -3 9 -45 9 -94 0 -87 -12 -137 -37 -153 -8 -5 -13 -28 -13 -57
0 -43 -3 -50 -20 -50 -17 0 -20 -7 -20 -49 0 -44 -3 -50 -22 -53 -20 -3 -23
-10 -26 -55 l-3 -52 -42 -3 -42 -3 -3 -48 -3 -48 -92 3 -92 3 -3 35 c-4 41
-24 60 -64 60 -26 0 -28 3 -28 39 0 42 -26 71 -62 71 -14 0 -18 8 -18 38 0 21
-11 54 -25 77 -19 30 -25 54 -25 98 0 63 -12 97 -35 97 -11 0 -15 13 -15 55 0
48 -2 55 -20 55 -18 0 -20 7 -20 55 l0 55 -45 0 c-43 0 -45 -1 -45 -29 0 -17
-4 -33 -10 -36 -5 -3 -10 -21 -10 -40 0 -19 5 -37 10 -40 6 -4 10 -80 10 -196
0 -104 4 -189 8 -189 22 0 32 -59 32 -189 0 -178 7 -228 31 -234 17 -5 19 -16
19 -105 0 -103 10 -148 43 -195 l20 -29 134 4 c150 3 163 9 163 75 l0 33 64 0
c62 0 65 1 85 34 12 18 21 43 21 55 0 19 6 21 50 21 l49 0 7 49 c6 47 8 49 44
55 41 6 50 19 50 72 0 27 4 34 20 34 18 0 20 7 20 55 0 50 2 55 23 55 21 0 41
31 61 92 3 10 14 18 25 18 22 0 31 19 31 66 l0 34 70 0 70 0 0 -49 c0 -40 4
-51 19 -56 13 -4 22 -20 28 -53 6 -37 13 -48 29 -50 15 -2 24 -13 28 -33 8
-41 35 -79 57 -79 15 0 18 -9 21 -52 3 -46 6 -53 26 -56 19 -3 22 -9 22 -53 0
-42 3 -49 19 -49 17 0 20 -8 23 -52 3 -46 6 -53 26 -56 19 -3 22 -9 22 -48 0
-38 3 -46 25 -54 19 -7 25 -17 25 -39 0 -52 8 -61 56 -61 53 0 64 16 64 93 0
39 -6 61 -20 80 -14 18 -20 40 -20 76 0 43 -3 51 -19 51 -16 0 -19 11 -25 93
-5 74 -10 95 -26 109 -15 12 -20 29 -20 63 0 38 -4 48 -19 52 -15 4 -21 17
-27 59 -5 43 -10 54 -25 54 -15 0 -18 9 -21 53 -3 45 -6 52 -25 55 -20 3 -23
9 -23 53 0 42 -3 49 -20 49 -18 0 -20 7 -20 55 0 30 -4 55 -9 55 -19 0 -41 64
-41 117 0 40 -5 58 -20 73 -11 11 -20 28 -20 39 0 43 -13 81 -31 86 -15 5 -19
16 -19 55 0 39 -3 49 -20 53 -14 4 -20 14 -20 34 0 48 -11 73 -31 73 -16 0
-19 8 -19 51 0 41 -3 52 -19 56 -14 3 -20 18 -25 55 -5 38 -12 51 -26 55 -16
4 -20 14 -20 54 0 46 -2 49 -25 49 -24 0 -25 3 -25 55 0 48 -3 55 -19 55 -17
0 -20 8 -23 53 -3 45 -6 52 -25 55 -20 3 -23 9 -23 53 0 42 -3 49 -19 49 -17
0 -20 8 -23 53 -3 45 -6 52 -25 55 -20 3 -23 9 -23 54 0 41 -3 51 -19 55 -16
4 -21 15 -23 52 -3 39 -6 46 -25 49 -21 3 -23 9 -23 58 0 47 -2 54 -20 54 -18
0 -20 7 -20 55 0 48 2 55 20 55 17 0 20 7 20 48 0 39 4 49 23 57 17 8 23 19
25 56 2 37 7 48 23 52 16 4 19 14 19 55 0 45 3 51 23 54 19 3 22 10 25 52 3
38 7 49 23 53 15 4 19 14 19 52 0 38 4 48 23 56 17 8 23 19 25 56 2 37 7 48
23 52 16 4 19 14 19 56 0 38 4 51 15 51 19 0 35 31 35 70 0 18 9 43 19 56 14
18 22 49 27 104 5 65 10 79 25 83 15 4 19 15 19 56 0 43 3 51 19 51 22 0 31
26 31 88 0 24 8 55 18 69 15 23 17 58 20 255 l3 228 -88 -1 c-48 0 -98 -4
-110 -9z"/>
<path d="M20310 7811 c-5 -11 -10 -36 -10 -55 l0 -36 -123 0 c-82 0 -127 -4
-135 -12 -7 -7 -12 -29 -12 -50 l0 -38 -51 0 c-73 0 -89 -11 -89 -65 l0 -45
-41 0 c-49 0 -75 -24 -85 -76 -6 -30 -10 -34 -38 -34 -42 0 -56 -16 -56 -62 0
-34 -3 -38 -25 -38 -24 0 -25 -3 -25 -54 0 -49 -2 -55 -22 -58 -22 -3 -23 -7
-23 -103 0 -97 0 -99 25 -105 18 -4 26 -15 31 -39 10 -50 27 -61 50 -32 10 13
19 34 19 47 0 23 2 23 113 26 l112 3 3 53 3 52 70 0 69 0 0 49 0 48 61 6 c33
3 63 8 66 11 3 3 8 25 10 51 l6 45 41 0 c37 0 43 4 59 36 9 19 17 43 17 54 0
15 9 19 47 22 l48 3 8 47 c6 33 14 48 28 51 17 5 19 15 19 105 0 97 -1 101
-22 104 -19 2 -24 10 -26 43 -4 48 -23 65 -74 65 -27 0 -40 -5 -48 -19z"/>
<path d="M23812 7818 c-15 -7 -27 -27 -34 -54 l-12 -43 -110 -3 -111 -3 -3
-47 -3 -48 -54 0 c-79 0 -85 -4 -85 -61 l0 -49 -46 0 c-61 0 -84 -14 -84 -50
0 -49 -9 -60 -50 -60 -40 0 -50 -13 -50 -72 0 -21 -5 -28 -20 -28 -14 0 -20
-7 -20 -23 0 -28 -28 -87 -41 -87 -5 0 -9 -47 -9 -105 0 -104 0 -105 24 -105
24 0 36 -16 36 -50 0 -9 7 -23 15 -30 21 -17 43 2 51 46 l6 34 95 0 c119 0
133 7 133 65 l0 44 68 3 67 3 3 46 3 47 49 4 c63 6 80 21 80 69 l0 38 48 3 47
3 3 53 3 52 53 0 c61 0 76 11 76 58 0 24 8 42 25 58 22 20 25 31 25 89 0 71
-12 105 -35 105 -11 0 -15 11 -15 39 0 22 -6 44 -15 51 -20 17 -86 22 -113 8z"/>
<path d="M21423 5803 c-18 -4 -22 -12 -25 -51 l-3 -47 -55 -3 c-30 -2 -60 -8
-67 -14 -7 -6 -13 -30 -13 -54 0 -40 -2 -44 -25 -44 -23 0 -25 -3 -25 -49 0
-40 -3 -50 -20 -54 -17 -4 -20 -14 -20 -56 0 -38 -4 -51 -15 -51 -25 0 -35
-36 -35 -125 0 -84 -1 -86 -22 -83 -22 3 -23 8 -26 91 -2 74 -6 89 -22 100
-15 9 -20 23 -20 60 0 42 -3 49 -27 58 -15 5 -45 9 -67 7 -35 -3 -41 -7 -44
-28 -4 -36 -23 -80 -34 -80 -5 0 -7 -253 -6 -621 l3 -620 25 -19 c29 -22 119
-27 138 -8 7 7 12 31 12 54 0 33 4 43 20 47 17 4 20 14 20 56 0 38 4 51 15 51
21 0 35 32 35 82 0 24 7 52 15 62 8 11 15 28 15 38 0 10 4 26 9 36 5 9 14 36
20 60 7 23 16 42 21 42 6 0 10 8 10 17 0 39 24 82 49 88 33 8 41 21 41 67 0
30 4 37 23 40 18 2 23 10 25 48 4 50 13 60 60 60 32 0 32 0 32 50 l0 50 45 0
45 0 0 -37 c0 -50 9 -61 50 -65 l35 -3 3 -80 c3 -103 8 -122 32 -130 20 -6 20
-15 20 -372 0 -354 1 -365 20 -370 17 -5 20 -15 22 -107 3 -94 5 -102 26 -111
18 -8 22 -18 22 -58 l0 -47 178 2 177 3 3 47 3 47 42 3 42 3 3 53 3 52 45 0
c43 0 44 1 44 33 0 64 9 77 51 77 l38 0 7 50 c5 37 11 50 23 50 35 0 61 29 61
70 0 32 4 39 23 42 23 3 24 19 27 371 0 44 3 57 15 57 19 0 35 40 35 86 0 19
7 46 16 59 9 13 18 57 21 99 6 72 7 76 29 76 22 0 24 4 24 54 0 44 3 55 18 58
24 7 32 97 32 369 0 225 -4 259 -31 259 -15 0 -19 8 -19 38 0 50 -8 58 -57 67
-48 8 -83 -7 -83 -35 0 -36 -22 -70 -46 -70 -28 0 -44 -27 -44 -72 0 -22 -7
-37 -20 -46 -18 -11 -20 -23 -20 -106 0 -90 -1 -95 -22 -98 -20 -3 -23 -10
-26 -52 -2 -36 -9 -54 -23 -64 -16 -11 -19 -25 -19 -108 0 -86 -2 -94 -19 -94
-26 0 -31 -18 -31 -120 0 -77 -2 -88 -18 -92 -21 -6 -32 -60 -32 -159 0 -52
-2 -59 -20 -59 -17 0 -20 -7 -20 -51 0 -41 -4 -52 -19 -56 -14 -3 -20 -17 -24
-55 -4 -28 -13 -58 -21 -67 -8 -9 -17 -32 -21 -53 -4 -23 -14 -38 -25 -41 -10
-3 -20 -15 -23 -28 -4 -22 -4 -22 -6 4 -1 19 -6 27 -20 27 -17 0 -19 12 -25
158 -3 86 -9 183 -14 214 -5 36 -4 64 2 75 6 11 10 165 11 406 0 388 0 389
-22 407 -17 13 -23 30 -25 71 -3 47 -6 54 -25 57 -17 2 -24 12 -29 38 -3 19
-17 43 -31 54 -24 18 -40 20 -217 19 -105 -1 -201 -4 -213 -6z"/>
<path d="M13043 5674 c-13 -14 -23 -39 -23 -55 0 -24 -4 -29 -24 -29 -21 0
-25 -6 -31 -49 -5 -37 -11 -50 -26 -54 -16 -4 -19 -14 -19 -55 0 -45 -3 -51
-22 -54 -20 -3 -23 -10 -26 -55 -3 -45 -6 -53 -23 -53 -16 0 -19 -7 -19 -49 0
-44 -3 -49 -25 -55 -22 -6 -25 -11 -25 -56 0 -43 -3 -50 -20 -50 -18 0 -20 -7
-20 -54 0 -49 -2 -55 -22 -58 -20 -3 -23 -10 -26 -51 -2 -31 -10 -55 -23 -68
-16 -16 -19 -33 -19 -108 0 -85 -1 -90 -22 -93 -22 -3 -23 -8 -26 -93 -4 -114
-2 -115 130 -115 l98 0 0 -101 c0 -92 2 -101 20 -106 15 -4 20 -14 20 -40 0
-62 26 -85 74 -67 12 4 16 20 16 55 0 36 4 49 15 49 29 0 35 39 35 232 0 181
1 195 20 211 17 14 20 29 20 107 0 85 1 90 21 90 28 0 57 34 65 76 5 27 11 34
30 34 22 0 24 4 24 55 0 48 3 55 19 55 27 0 33 71 29 320 -3 194 -3 195 -25
198 -21 3 -23 9 -23 58 l0 54 -62 0 c-55 0 -66 -4 -85 -26z"/>
<path d="M10870 5542 c0 -39 -4 -49 -22 -57 -21 -9 -23 -17 -26 -112 -2 -95
-4 -103 -22 -103 -19 0 -20 -7 -20 -114 0 -88 -3 -115 -14 -119 -29 -12 -36
-105 -36 -517 l0 -410 25 -6 c22 -6 25 -11 25 -55 l0 -49 135 0 135 0 0 50 c0
42 3 50 18 50 27 0 62 42 62 73 0 20 7 30 24 37 19 7 25 18 31 59 6 41 11 51
26 51 16 0 19 7 19 50 0 47 2 50 25 50 23 0 25 -4 25 -46 0 -37 4 -47 20 -51
17 -5 20 -14 20 -63 0 -98 10 -148 31 -153 15 -4 19 -15 19 -52 0 -28 6 -52
15 -62 9 -8 21 -35 27 -59 l12 -44 89 0 c112 0 127 7 127 65 l0 44 43 3 42 3
3 47 3 47 42 3 42 3 3 53 3 52 95 0 94 0 0 -55 c0 -30 4 -55 8 -55 22 0 32
-59 32 -184 0 -125 -1 -134 -20 -139 -18 -5 -20 -14 -20 -106 0 -92 -2 -101
-19 -101 -25 0 -31 -19 -31 -98 0 -49 -5 -76 -20 -100 -12 -20 -20 -50 -20
-77 0 -25 -4 -45 -9 -45 -5 0 -17 -7 -25 -16 -12 -12 -16 -37 -16 -106 0 -81
-2 -90 -20 -95 -18 -5 -20 -14 -20 -87 0 -98 -6 -123 -31 -129 -18 -5 -19 -16
-19 -159 0 -138 -2 -154 -19 -165 -39 -24 -36 -327 5 -373 7 -9 14 -45 16 -80
3 -59 5 -65 26 -68 18 -3 22 -10 22 -37 0 -59 17 -66 149 -63 l116 3 3 47 3
47 42 3 42 3 3 53 c3 44 6 52 23 52 16 0 19 7 19 55 0 52 1 55 25 55 l25 0 0
105 c0 96 2 105 19 105 23 0 31 55 31 211 0 98 2 107 20 112 19 5 20 14 20
161 0 134 2 156 17 164 24 14 31 88 32 320 1 188 2 203 21 222 19 19 20 33 20
405 0 375 -1 386 -21 406 -15 15 -30 19 -62 17 -38 -3 -43 -6 -48 -33 l-7 -30
-1 33 c-1 25 -5 32 -21 32 -15 0 -21 9 -26 41 -4 23 -15 46 -25 52 -14 9 -19
24 -19 54 0 30 -5 46 -19 55 -14 10 -21 28 -23 64 -3 42 -6 49 -25 52 -23 3
-23 5 -23 153 0 138 -1 150 -20 161 -16 10 -20 24 -20 65 0 46 3 53 20 53 19
0 20 7 20 155 l0 155 -40 0 c-49 0 -80 -27 -80 -70 0 -23 -4 -30 -20 -30 -25
0 -40 -29 -40 -74 0 -29 -4 -36 -20 -36 -17 0 -20 -7 -20 -48 0 -42 -3 -50
-25 -60 -21 -10 -25 -18 -25 -56 0 -35 -4 -45 -20 -49 -17 -4 -20 -14 -20 -55
0 -45 -3 -51 -22 -54 -20 -3 -23 -10 -26 -50 -2 -35 -8 -48 -21 -53 -13 -4
-20 -20 -25 -54 -5 -37 -11 -50 -26 -54 -17 -4 -20 -14 -20 -56 0 -43 -3 -51
-19 -51 -20 0 -31 -25 -31 -72 0 -18 -7 -29 -20 -33 -16 -5 -20 -15 -20 -55 0
-42 -3 -48 -24 -52 -22 -4 -24 -1 -30 44 -4 29 -13 51 -21 55 -12 4 -15 35
-15 173 0 210 -6 260 -31 260 -17 0 -19 9 -19 105 0 103 0 105 -25 111 -22 6
-25 11 -25 55 l0 49 -110 0 -110 0 0 -49 c0 -44 -3 -50 -22 -53 -20 -3 -23
-10 -26 -60 -2 -40 -7 -58 -16 -58 -21 0 -26 -24 -26 -117 0 -75 -2 -87 -22
-102 -19 -16 -22 -31 -26 -110 -4 -80 -7 -91 -23 -91 -14 0 -19 -10 -22 -47
l-3 -48 -2 48 c-2 40 -5 47 -22 47 -18 0 -20 7 -20 77 0 74 15 143 32 143 4 0
8 167 8 370 l0 370 -65 0 -65 0 0 -48z m1270 -2501 c0 -100 -2 -109 -20 -114
-18 -5 -20 -14 -20 -76 0 -70 -14 -119 -37 -134 -8 -5 -13 -28 -13 -56 0 -40
-3 -50 -20 -54 -19 -5 -20 0 -20 105 0 101 2 110 20 115 18 5 20 14 20 109 l0
104 25 0 c23 0 25 3 25 49 0 39 4 51 18 54 9 3 18 5 20 6 1 0 2 -48 2 -108z"/>
<path d="M10393 5480 c-19 -8 -23 -17 -23 -55 0 -33 -4 -45 -15 -45 -25 0 -35
-36 -35 -127 0 -77 -2 -90 -20 -101 -19 -12 -20 -23 -20 -267 0 -244 -1 -255
-19 -255 -10 0 -22 -7 -25 -16 -3 -9 -6 -194 -6 -411 0 -395 4 -455 36 -493 7
-8 14 -42 16 -75 l3 -60 94 -3 c60 -2 98 1 107 9 8 6 14 30 14 55 0 37 3 43
23 46 19 3 22 10 25 54 2 42 7 53 22 57 18 5 20 14 20 106 0 82 3 101 15 101
34 0 35 33 33 641 l-3 601 -22 18 c-19 15 -23 28 -23 69 0 44 -3 51 -20 51
-17 0 -20 7 -20 45 0 34 -5 47 -19 55 -24 12 -107 12 -138 0z"/>
<path d="M13450 4765 c-9 -23 -15 -25 -69 -25 -80 0 -91 -5 -91 -45 0 -55 -8
-65 -51 -65 l-38 0 -7 -50 c-5 -40 -10 -50 -25 -50 -13 0 -19 -7 -19 -24 0
-24 -22 -74 -37 -85 -4 -3 -17 -22 -28 -41 -15 -28 -20 -60 -23 -153 -4 -113
-4 -118 16 -124 15 -3 22 -16 28 -46 6 -41 17 -57 41 -57 22 0 43 32 43 66 l0
34 58 0 c32 0 63 5 70 12 7 7 12 31 12 54 l0 43 43 3 42 3 3 53 c3 51 3 52 36
52 42 0 56 15 56 61 0 28 5 39 19 44 25 8 33 71 29 210 l-3 100 -33 3 c-24 2
-35 10 -42 28 -12 30 -18 30 -30 -1z"/>
<path d="M28041 4401 c-20 -15 -25 -31 -33 -108 -5 -53 -6 -109 -1 -134 8 -40
11 -44 47 -51 51 -11 3662 -5 3673 5 4 5 8 70 8 144 -1 121 -3 137 -20 149
-16 12 -302 14 -1834 14 -1738 0 -1817 -1 -1840 -19z"/>
<path d="M256 4084 c-8 -20 -8 -158 0 -178 5 -14 47 -16 364 -16 l358 0 7 -39
c4 -22 14 -46 22 -53 13 -10 200 -14 952 -16 515 -2 1009 -1 1099 3 180 8 192
12 192 71 l0 34 360 0 c334 0 361 1 368 18 9 22 9 152 0 175 -7 16 -105 17
-1862 17 -1681 0 -1854 -1 -1860 -16z"/>
</g>
</svg>
