<?xml version="1.0" standalone="no"?>
<!DOCTYPE svg PUBLIC "-//W3C//DTD SVG 20010904//EN"
 "http://www.w3.org/TR/2001/REC-SVG-20010904/DTD/svg10.dtd">
<svg version="1.0" xmlns="http://www.w3.org/2000/svg"
 width="480.000000pt" height="583.000000pt" viewBox="0 0 480.000000 583.000000"
 preserveAspectRatio="xMidYMid meet">
<metadata>
Created by potrace 1.16, written by Peter Selinger 2001-2019
</metadata>
<g transform="translate(0.000000,583.000000) scale(0.100000,-0.100000)"
fill="#000000" stroke="none">
<path d="M2172 5588 c-7 -7 -12 -33 -12 -59 0 -52 8 -59 65 -59 57 0 65 7 65
59 0 26 -5 52 -12 59 -16 16 -90 16 -106 0z"/>
<path d="M4380 4555 l0 -55 165 0 165 0 0 55 0 55 -165 0 -165 0 0 -55z"/>
<path d="M4222 4398 c-17 -17 -15 -93 2 -107 8 -7 36 -11 63 -9 l48 3 0 60 0
60 -50 3 c-30 2 -55 -2 -63 -10z"/>
<path d="M4524 3786 c-3 -7 -4 -35 -2 -62 l3 -49 48 -3 c27 -2 55 2 63 9 20
17 19 105 -2 113 -30 12 -104 6 -110 -8z"/>
<path d="M2150 3449 c-37 -15 -58 -38 -71 -76 -16 -51 -4 -94 46 -159 25 -32
50 -72 57 -91 15 -42 24 -42 38 1 6 18 31 59 55 91 24 31 47 72 51 91 8 44
-13 101 -47 126 -31 23 -94 32 -129 17z"/>
<path d="M4164 1937 c-3 -8 -4 -36 -2 -63 l3 -49 60 0 60 0 0 60 0 60 -58 3
c-42 2 -59 -1 -63 -11z"/>
</g>
</svg>
